<svg xmlns="http://www.w3.org/2000/svg" xmlns:xlink="http://www.w3.org/1999/xlink" width="2186" height="2186" viewBox="0 0 2186 2186"><defs><linearGradient id="a" x2="1" y2="1" gradientUnits="objectBoundingBox"><stop offset="0" stop-color="#383838"/><stop offset="0.5" stop-color="#292929"/><stop offset="1" stop-color="#181818"/></linearGradient><filter id="b" x="638.06" y="909" width="907.8" height="382" filterUnits="userSpaceOnUse"><feOffset dy="7" input="SourceAlpha"/><feGaussianBlur stdDeviation="5" result="c"/><feFlood/><feComposite operator="in" in2="c"/><feComposite in="SourceGraphic"/></filter><clipPath id="e"><rect width="2186" height="2186"/></clipPath></defs><g id="d" clip-path="url(#e)"><rect width="2186" height="2186" fill="url(#a)"/><g transform="matrix(1, 0, 0, 1, 0, 0)" filter="url(#b)"><path d="M884.46,152.24c-9.68-21.56-22-40.04-38.28-56.32A181.756,181.756,0,0,0,790.3,58.08,170.472,170.472,0,0,0,722.1,44H605.06l58.52,58.96H722.1a120.5,120.5,0,0,1,45.32,8.8,122.671,122.671,0,0,1,37.4,25.52,120.249,120.249,0,0,1,25.52,37.4,115.763,115.763,0,0,1,0,90.64,126.881,126.881,0,0,1-25.08,37.4,115.354,115.354,0,0,1-37.4,25.52,121.079,121.079,0,0,1-45.76,8.8H663.58L605.06,396H722.1a168.922,168.922,0,0,0,68.2-14.08,178.637,178.637,0,0,0,56.32-37.84,191.941,191.941,0,0,0,37.84-56.32C893.7,266.64,898.1,244.2,898.1,220S893.7,173.36,884.46,152.24Zm188.32-50.16L1014.26,44V396l58.52-58.96ZM1119.86,44l176,352,33-65.56L1185.42,44Zm363,58.08L1424.34,44V396l58.52-58.96Z" transform="translate(48 873)" fill="#fff"/></g></g></svg>