<svg xmlns="http://www.w3.org/2000/svg" xmlns:xlink="http://www.w3.org/1999/xlink" width="251.144" height="251.583" viewBox="0 0 251.144 251.583">
  <defs>
    <linearGradient id="linear-gradient" x2="1" y2="1" gradientUnits="objectBoundingBox">
      <stop offset="0" stop-color="#db63c3"/>
      <stop offset="1" stop-color="#317693"/>
    </linearGradient>
  </defs>
  <g id="M-01-01_copy" data-name="M-01-01 copy" transform="translate(0.6 0.858)">
    <rect id="Rectangle_1" data-name="Rectangle 1" width="250" height="249.107" transform="translate(-0.1 0.3)" fill="#2a2a2a" stroke="#707070" stroke-width="1"/>
    <path id="Path_6" data-name="Path 6" d="M208.446,249.662V104.254l-82.015,85.077c-9.821-10.077-17.985-18.367-26.148-26.658L2.706,62.8A22.555,22.555,0,0,0-.1,60.759V.555L4.874,5.147,121.584,123.769c1.02,1.148,2.3,2.168,3.827,3.7L249.772.3c.128,2.168.128,4.464.128,5.995V249.662c-.128,1.913.383-1.913,0,0Z" transform="translate(0 0)" stroke="#332228" stroke-miterlimit="10" stroke-width="1" fill="url(#linear-gradient)"/>
    <rect id="Rectangle_2" data-name="Rectangle 2" width="250" height="249.107" transform="translate(-0.1 0.3)" fill="none" stroke="#2a2a2a" stroke-miterlimit="10" stroke-width="1"/>
  </g>
</svg>
