<svg xmlns="http://www.w3.org/2000/svg" xmlns:xlink="http://www.w3.org/1999/xlink" width="294" height="294" viewBox="0 0 294 294">
  <defs>
    <linearGradient id="linear-gradient" x1="1" y1="1" x2="0" gradientUnits="objectBoundingBox">
      <stop offset="0" stop-color="#d7e1ec"/>
      <stop offset="1" stop-color="#fff"/>
    </linearGradient>
    <linearGradient id="linear-gradient-2" y1="0.5" x2="1" y2="6.848" gradientUnits="objectBoundingBox">
      <stop offset="0"/>
      <stop offset="1" stop-color="#efeded"/>
    </linearGradient>
    <linearGradient id="linear-gradient-3" y1="0.5" x2="1.106" y2="1" xlink:href="#linear-gradient-2"/>
  </defs>
  <g id="Group_153" data-name="Group 153" transform="translate(-886 -3436)">
    <g id="Rectangle_53" data-name="Rectangle 53" transform="translate(886 3436)" stroke="#707070" stroke-width="1" fill="url(#linear-gradient)">
      <rect width="294" height="294" stroke="none"/>
      <rect x="0.5" y="0.5" width="293" height="293" fill="none"/>
    </g>
    <path id="Path_97" data-name="Path 97" d="M7.295,5.6H0L15.96,37.472l3.672-7.344Zm49.2,0L44.21,30.128,35.544,12.895l-3.672,7.344L44.21,44.767,63.793,5.6Zm9.645,38.628v.539H92.238v-6.56H72.654Zm0-38.628,6.511,6.56H92.238V5.6Zm0,16.352v6.511H92.238V21.952H66.143ZM105.75,38.206l-6.511,6.56h26.095v-6.56ZM99.239,5.6V35.905l6.511-6.56V5.6Zm36.915,37.6a19.442,19.442,0,0,0,15.177.049l-7.589-5.043a13.66,13.66,0,0,1-5.092-.979,12.631,12.631,0,0,1-4.113-2.84,12.631,12.631,0,0,1-2.84-4.113,13.122,13.122,0,0,1,0-10.183,13.289,13.289,0,0,1,2.791-4.113,12.334,12.334,0,0,1,4.161-2.84,13.472,13.472,0,0,1,5.092-.979,12.682,12.682,0,0,1,9.2,3.77l4.651-4.553a20.311,20.311,0,0,0-6.267-4.259,19.442,19.442,0,0,0-15.177.049,19.613,19.613,0,0,0-6.267,4.21,20,20,0,0,0-4.21,6.169,19.2,19.2,0,0,0-1.567,7.638,18.909,18.909,0,0,0,1.567,7.54A19.6,19.6,0,0,0,136.154,43.2ZM180.9,5.6A18.706,18.706,0,0,0,167.1,11.377a18.863,18.863,0,0,0-5.777,13.806A18.784,18.784,0,0,0,167.1,38.99a19.386,19.386,0,0,0,27.613,0,18.567,18.567,0,0,0,5.826-13.806,18.722,18.722,0,0,0-5.826-13.806A18.784,18.784,0,0,0,180.9,5.6Zm0,6.56a12.571,12.571,0,0,1,9.2,3.819,12.571,12.571,0,0,1,3.819,9.2,12.568,12.568,0,0,1-3.819,9.253,13,13,0,0,1-22.227-9.253A12.955,12.955,0,0,1,180.9,12.16Zm20.905,2.546,19.632,19.73L234.56,21.365v23.4h6.463V5.6L221.439,25.183,201.807,5.6Zm43.475,29.522v.539h26.095v-6.56H251.794Zm0-38.628,6.511,6.56h19.583V5.6Zm0,16.352v6.511h26.095V21.952H245.282Z" transform="translate(897.201 3450.15)" fill="url(#linear-gradient-2)"/>
    <path id="Path_98" data-name="Path 98" d="M6.577,31H2.183V9.672H6.577Zm5.01-14.78L9.595,15.063a7.822,7.822,0,0,0,1.3-4.087V8.5h3.369v2.271a6.692,6.692,0,0,1-.732,2.856A7.853,7.853,0,0,1,11.587,16.22Zm9.639-1.069.132,1.772a5.57,5.57,0,0,1,4.556-2.065,4.227,4.227,0,0,1,4.2,2.417,5.442,5.442,0,0,1,4.761-2.417,4.727,4.727,0,0,1,3.838,1.5,6.9,6.9,0,0,1,1.26,4.519V31H35.728V20.893a3.018,3.018,0,0,0-.527-1.97,2.337,2.337,0,0,0-1.86-.623A2.642,2.642,0,0,0,30.7,20.116L30.718,31H26.484V20.907a2.981,2.981,0,0,0-.542-1.992A2.36,2.36,0,0,0,24.1,18.3a2.743,2.743,0,0,0-2.607,1.494V31H17.256V15.15Zm42.583,7.134H55.371V31H50.977V9.672H64.863v3.56H55.371v5.508h8.438ZM71.6,31H67.354V15.15H71.6ZM67.1,11.049a2.085,2.085,0,0,1,.637-1.567,2.746,2.746,0,0,1,3.464,0,2.073,2.073,0,0,1,.645,1.567,2.078,2.078,0,0,1-.652,1.582,2.715,2.715,0,0,1-3.442,0A2.078,2.078,0,0,1,67.1,11.049ZM79.556,31H75.308V8.5h4.248Zm7.954,0H83.262V15.15H87.51Zm-4.5-19.951a2.085,2.085,0,0,1,.637-1.567,2.746,2.746,0,0,1,3.464,0,2.073,2.073,0,0,1,.645,1.567,2.078,2.078,0,0,1-.652,1.582,2.715,2.715,0,0,1-3.442,0A2.078,2.078,0,0,1,83.013,11.049Zm22.251,12.173a9.506,9.506,0,0,1-1.663,5.867,5.331,5.331,0,0,1-4.49,2.2,4.938,4.938,0,0,1-3.882-1.67v7.471H91V15.15h3.926l.146,1.553a4.976,4.976,0,0,1,4.014-1.846,5.367,5.367,0,0,1,4.556,2.168A9.763,9.763,0,0,1,105.264,23Zm-4.233-.308a6.238,6.238,0,0,0-.784-3.413,2.553,2.553,0,0,0-2.278-1.2,2.772,2.772,0,0,0-2.739,1.523v6.489A2.819,2.819,0,0,0,98,27.88Q101.03,27.88,101.03,22.914Zm7.954,13.433-2.212-1.157.527-.952a7.611,7.611,0,0,0,1.011-3.56V27.4h3.574l-.015,2.93a7.61,7.61,0,0,1-.82,3.281A8.412,8.412,0,0,1,108.984,36.347Zm-90.469,27.5,2.871-15.176h4.38L21.035,70H16.611L13.14,55.732,9.668,70H5.244L.513,48.672h4.38L7.778,63.818l3.516-15.146h3.721Zm16.641,6.445a7.781,7.781,0,0,1-5.676-2.139,7.6,7.6,0,0,1-2.19-5.7v-.41a9.575,9.575,0,0,1,.923-4.27,6.773,6.773,0,0,1,2.615-2.9,7.339,7.339,0,0,1,3.86-1.018,6.578,6.578,0,0,1,5.12,2.051,8.333,8.333,0,0,1,1.868,5.815v1.729H31.582a3.933,3.933,0,0,0,1.238,2.49,3.742,3.742,0,0,0,2.615.938,4.569,4.569,0,0,0,3.823-1.772l2.08,2.329a6.355,6.355,0,0,1-2.578,2.1A8.458,8.458,0,0,1,35.156,70.293Zm-.483-13.008a2.651,2.651,0,0,0-2.043.85,4.389,4.389,0,0,0-1,2.432h5.889v-.337a3.129,3.129,0,0,0-.762-2.175A2.736,2.736,0,0,0,34.673,57.285Zm23.687,4.937a9.6,9.6,0,0,1-1.626,5.94,5.386,5.386,0,0,1-4.541,2.131,4.948,4.948,0,0,1-4.116-1.978L47.886,70H44.077V47.5h4.233v8.071a4.821,4.821,0,0,1,3.853-1.714,5.43,5.43,0,0,1,4.548,2.131,9.611,9.611,0,0,1,1.648,6Zm-4.233-.308a6.305,6.305,0,0,0-.762-3.508A2.576,2.576,0,0,0,51.094,57.3a2.793,2.793,0,0,0-2.783,1.655V65.21a2.83,2.83,0,0,0,2.813,1.67,2.614,2.614,0,0,0,2.7-2.021A10.428,10.428,0,0,0,54.126,61.914ZM68.716,70V48.672h6.563a9.966,9.966,0,0,1,5.032,1.267,8.836,8.836,0,0,1,3.464,3.6,11.115,11.115,0,0,1,1.245,5.31v.981A11.146,11.146,0,0,1,83.8,65.122a8.76,8.76,0,0,1-3.45,3.589A10.041,10.041,0,0,1,75.322,70ZM73.11,52.231V66.47h2.124a4.772,4.772,0,0,0,3.94-1.685,7.612,7.612,0,0,0,1.392-4.819V58.838a7.733,7.733,0,0,0-1.348-4.929,4.756,4.756,0,0,0-3.94-1.677ZM95.229,70.293a7.781,7.781,0,0,1-5.676-2.139,7.6,7.6,0,0,1-2.19-5.7v-.41a9.575,9.575,0,0,1,.923-4.27,6.773,6.773,0,0,1,2.615-2.9,7.339,7.339,0,0,1,3.86-1.018,6.578,6.578,0,0,1,5.12,2.051,8.333,8.333,0,0,1,1.868,5.815v1.729H91.655a3.933,3.933,0,0,0,1.238,2.49,3.742,3.742,0,0,0,2.615.938,4.569,4.569,0,0,0,3.823-1.772l2.08,2.329a6.355,6.355,0,0,1-2.578,2.1A8.458,8.458,0,0,1,95.229,70.293Zm-.483-13.008a2.651,2.651,0,0,0-2.043.85,4.389,4.389,0,0,0-1,2.432h5.889v-.337a3.129,3.129,0,0,0-.762-2.175A2.736,2.736,0,0,0,94.746,57.285Zm15.146,7.544,2.944-10.679h4.424L111.914,70h-4.043l-5.347-15.85h4.424Zm16.523,5.464a7.781,7.781,0,0,1-5.676-2.139,7.6,7.6,0,0,1-2.19-5.7v-.41a9.575,9.575,0,0,1,.923-4.27,6.773,6.773,0,0,1,2.615-2.9,7.339,7.339,0,0,1,3.86-1.018,6.578,6.578,0,0,1,5.12,2.051,8.333,8.333,0,0,1,1.868,5.815v1.729H122.842a3.933,3.933,0,0,0,1.238,2.49,3.742,3.742,0,0,0,2.615.938,4.569,4.569,0,0,0,3.823-1.772l2.08,2.329a6.355,6.355,0,0,1-2.578,2.1A8.458,8.458,0,0,1,126.416,70.293Zm-.483-13.008a2.651,2.651,0,0,0-2.043.85,4.389,4.389,0,0,0-1,2.432h5.889v-.337a3.129,3.129,0,0,0-.762-2.175A2.736,2.736,0,0,0,125.933,57.285ZM139.8,70h-4.248V47.5H139.8Zm2.827-8.071a9.4,9.4,0,0,1,.908-4.2,6.649,6.649,0,0,1,2.615-2.856,7.628,7.628,0,0,1,3.962-1.011,7.217,7.217,0,0,1,5.237,1.963,7.878,7.878,0,0,1,2.263,5.332l.029,1.084a8.284,8.284,0,0,1-2.036,5.852,7.892,7.892,0,0,1-10.935.007,8.43,8.43,0,0,1-2.043-5.977Zm4.233.308a5.909,5.909,0,0,0,.85,3.45,3.055,3.055,0,0,0,4.834.015,6.465,6.465,0,0,0,.864-3.772,5.849,5.849,0,0,0-.864-3.428,2.811,2.811,0,0,0-2.432-1.216,2.765,2.765,0,0,0-2.4,1.208A6.574,6.574,0,0,0,146.865,62.236Zm27.656-.015a9.506,9.506,0,0,1-1.663,5.867,5.331,5.331,0,0,1-4.49,2.2,4.938,4.938,0,0,1-3.882-1.67v7.471h-4.233V54.15h3.926l.146,1.553a4.976,4.976,0,0,1,4.014-1.846,5.367,5.367,0,0,1,4.556,2.168A9.763,9.763,0,0,1,174.521,62Zm-4.233-.308A6.238,6.238,0,0,0,169.5,58.5a2.553,2.553,0,0,0-2.278-1.2,2.772,2.772,0,0,0-2.739,1.523v6.489a2.819,2.819,0,0,0,2.769,1.567Q170.288,66.88,170.288,61.914Zm14.15,8.379a7.781,7.781,0,0,1-5.676-2.139,7.6,7.6,0,0,1-2.19-5.7v-.41a9.575,9.575,0,0,1,.923-4.27,6.773,6.773,0,0,1,2.615-2.9,7.339,7.339,0,0,1,3.86-1.018,6.578,6.578,0,0,1,5.12,2.051,8.333,8.333,0,0,1,1.868,5.815v1.729H180.864a3.933,3.933,0,0,0,1.238,2.49,3.742,3.742,0,0,0,2.615.938,4.569,4.569,0,0,0,3.823-1.772l2.08,2.329a6.355,6.355,0,0,1-2.578,2.1A8.458,8.458,0,0,1,184.438,70.293Zm-.483-13.008a2.651,2.651,0,0,0-2.043.85,4.389,4.389,0,0,0-1,2.432H186.8v-.337a3.129,3.129,0,0,0-.762-2.175A2.736,2.736,0,0,0,183.955,57.285Zm18.311.835A11.5,11.5,0,0,0,200.742,58q-2.4,0-3.149,1.626V70h-4.233V54.15h4l.117,1.89a3.923,3.923,0,0,1,3.53-2.183,4.436,4.436,0,0,1,1.318.19ZM14.736,100.284H6.3V109H1.9V87.672H15.791v3.56H6.3v5.508h8.438ZM26.587,97.12A11.5,11.5,0,0,0,25.063,97q-2.4,0-3.149,1.626V109H17.681V93.15h4l.117,1.89a3.923,3.923,0,0,1,3.53-2.183,4.436,4.436,0,0,1,1.318.19Zm.85,3.809a9.4,9.4,0,0,1,.908-4.2,6.649,6.649,0,0,1,2.615-2.856,7.628,7.628,0,0,1,3.962-1.011,7.217,7.217,0,0,1,5.237,1.963,7.878,7.878,0,0,1,2.263,5.332l.029,1.084a8.284,8.284,0,0,1-2.036,5.852,7.078,7.078,0,0,1-5.464,2.2,7.113,7.113,0,0,1-5.471-2.2,8.43,8.43,0,0,1-2.043-5.977Zm4.233.308a5.909,5.909,0,0,0,.85,3.45,3.055,3.055,0,0,0,4.834.015,6.465,6.465,0,0,0,.864-3.772,5.849,5.849,0,0,0-.864-3.428,2.811,2.811,0,0,0-2.432-1.216,2.765,2.765,0,0,0-2.4,1.208A6.574,6.574,0,0,0,31.67,101.236ZM49.028,93.15l.132,1.772a5.57,5.57,0,0,1,4.556-2.065,4.227,4.227,0,0,1,4.2,2.417,5.442,5.442,0,0,1,4.761-2.417,4.727,4.727,0,0,1,3.838,1.5,6.9,6.9,0,0,1,1.26,4.519V109H63.53V98.893A3.018,3.018,0,0,0,63,96.922a2.337,2.337,0,0,0-1.86-.623,2.642,2.642,0,0,0-2.637,1.816L58.521,109H54.287V98.907a2.981,2.981,0,0,0-.542-1.992A2.36,2.36,0,0,0,51.9,96.3a2.743,2.743,0,0,0-2.607,1.494V109H45.059V93.15ZM89.839,103.4a2.255,2.255,0,0,0-.879-1.912,11.528,11.528,0,0,0-3.164-1.406,22.43,22.43,0,0,1-3.618-1.458q-3.633-1.963-3.633-5.288a5.15,5.15,0,0,1,.974-3.083,6.354,6.354,0,0,1,2.8-2.117,10.531,10.531,0,0,1,4.094-.762,9.585,9.585,0,0,1,4.072.828,6.484,6.484,0,0,1,2.776,2.336,6.114,6.114,0,0,1,.989,3.428H89.854a2.876,2.876,0,0,0-.923-2.278,3.794,3.794,0,0,0-2.593-.813,4.053,4.053,0,0,0-2.5.681,2.148,2.148,0,0,0-.894,1.794A2.058,2.058,0,0,0,83.987,95.1a11.833,11.833,0,0,0,3.083,1.318,13.323,13.323,0,0,1,5.464,2.8,5.572,5.572,0,0,1,1.714,4.16,5.133,5.133,0,0,1-2.095,4.343,9.17,9.17,0,0,1-5.64,1.575,10.89,10.89,0,0,1-4.482-.9,7.093,7.093,0,0,1-3.083-2.468,6.321,6.321,0,0,1-1.062-3.633h4.409q0,3.53,4.219,3.53a4.1,4.1,0,0,0,2.446-.637A2.073,2.073,0,0,0,89.839,103.4Zm11.572,5.6H97.163V86.5h4.248Zm2.827-8.071a9.4,9.4,0,0,1,.908-4.2,6.649,6.649,0,0,1,2.615-2.856,7.628,7.628,0,0,1,3.962-1.011,7.217,7.217,0,0,1,5.237,1.963,7.878,7.878,0,0,1,2.263,5.332l.029,1.084a8.284,8.284,0,0,1-2.036,5.852,7.892,7.892,0,0,1-10.935.007,8.43,8.43,0,0,1-2.043-5.977Zm4.233.308a5.909,5.909,0,0,0,.85,3.45,3.055,3.055,0,0,0,4.834.015,6.465,6.465,0,0,0,.864-3.772,5.849,5.849,0,0,0-.864-3.428,2.811,2.811,0,0,0-2.432-1.216,2.765,2.765,0,0,0-2.4,1.208A6.574,6.574,0,0,0,108.472,101.236Zm19.1,2.593,2.944-10.679h4.424L129.595,109h-4.043l-5.347-15.85h4.424ZM145.767,109a4.7,4.7,0,0,1-.425-1.421,5.122,5.122,0,0,1-4,1.714,5.627,5.627,0,0,1-3.86-1.348,4.334,4.334,0,0,1-1.531-3.4,4.479,4.479,0,0,1,1.868-3.867,9.216,9.216,0,0,1,5.4-1.362h1.948v-.908a2.612,2.612,0,0,0-.564-1.758,2.219,2.219,0,0,0-1.78-.659,2.522,2.522,0,0,0-1.677.513,1.742,1.742,0,0,0-.608,1.406H136.3a4.252,4.252,0,0,1,.85-2.549,5.616,5.616,0,0,1,2.4-1.838,8.755,8.755,0,0,1,3.486-.667,6.917,6.917,0,0,1,4.651,1.472,5.15,5.15,0,0,1,1.721,4.138v6.87a7.577,7.577,0,0,0,.63,3.413V109Zm-3.5-2.944a3.646,3.646,0,0,0,1.729-.417,2.742,2.742,0,0,0,1.172-1.121v-2.725h-1.582q-3.179,0-3.384,2.2l-.015.249a1.7,1.7,0,0,0,.557,1.3A2.162,2.162,0,0,0,142.266,106.056Zm16.157-3.413-1.523,1.523V109h-4.233V86.5H156.9V98.966l.82-1.055,4.058-4.761h5.083l-5.728,6.606L167.358,109H162.5ZM173.159,109h-4.248V93.15h4.248Zm-4.5-19.951a2.085,2.085,0,0,1,.637-1.567,2.746,2.746,0,0,1,3.464,0,2.237,2.237,0,0,1-.007,3.149,2.715,2.715,0,0,1-3.442,0A2.078,2.078,0,0,1,168.662,89.049ZM185.83,109a4.7,4.7,0,0,1-.425-1.421,5.122,5.122,0,0,1-4,1.714,5.627,5.627,0,0,1-3.86-1.348,4.334,4.334,0,0,1-1.531-3.4,4.479,4.479,0,0,1,1.868-3.867,9.216,9.216,0,0,1,5.4-1.362h1.948v-.908a2.612,2.612,0,0,0-.564-1.758,2.219,2.219,0,0,0-1.78-.659,2.522,2.522,0,0,0-1.677.513,1.742,1.742,0,0,0-.608,1.406h-4.233a4.252,4.252,0,0,1,.85-2.549,5.616,5.616,0,0,1,2.4-1.838,8.755,8.755,0,0,1,3.486-.667,6.917,6.917,0,0,1,4.651,1.472,5.15,5.15,0,0,1,1.721,4.138v6.87a7.577,7.577,0,0,0,.63,3.413V109Zm-3.5-2.944a3.646,3.646,0,0,0,1.729-.417,2.742,2.742,0,0,0,1.172-1.121v-2.725h-1.582q-3.179,0-3.384,2.2l-.015.249a1.7,1.7,0,0,0,.557,1.3A2.162,2.162,0,0,0,182.329,106.056Zm11.5,8.291-2.212-1.157.527-.952a7.611,7.611,0,0,0,1.011-3.56V105.4h3.574l-.015,2.93a7.61,7.61,0,0,1-.82,3.281A8.412,8.412,0,0,1,193.828,114.347ZM1.9,148V126.672H9.375a9.809,9.809,0,0,1,5.889,1.487,5.084,5.084,0,0,1,2.007,4.358,4.819,4.819,0,0,1-.806,2.761,4.654,4.654,0,0,1-2.241,1.75,4.5,4.5,0,0,1,2.585,1.655,4.894,4.894,0,0,1,.945,3.047,5.629,5.629,0,0,1-1.963,4.658A8.837,8.837,0,0,1,10.2,148ZM6.3,138.713v5.757h3.765a3.633,3.633,0,0,0,2.424-.74,2.537,2.537,0,0,0,.872-2.043q0-2.93-3.032-2.974Zm0-3.105H9.551q3.325-.059,3.325-2.651a2.45,2.45,0,0,0-.842-2.087,4.43,4.43,0,0,0-2.659-.637H6.3Zm23.379.513A11.5,11.5,0,0,0,28.154,136q-2.4,0-3.149,1.626V148H20.771V132.15h4l.117,1.89a3.923,3.923,0,0,1,3.53-2.183,4.436,4.436,0,0,1,1.318.19ZM40.459,148a4.7,4.7,0,0,1-.425-1.421,5.122,5.122,0,0,1-4,1.714,5.627,5.627,0,0,1-3.86-1.348,4.334,4.334,0,0,1-1.531-3.4,4.479,4.479,0,0,1,1.868-3.867,9.216,9.216,0,0,1,5.4-1.362h1.948v-.908a2.612,2.612,0,0,0-.564-1.758,2.219,2.219,0,0,0-1.78-.659,2.522,2.522,0,0,0-1.677.513,1.742,1.742,0,0,0-.608,1.406H31a4.252,4.252,0,0,1,.85-2.549,5.616,5.616,0,0,1,2.4-1.838,8.755,8.755,0,0,1,3.486-.667,6.917,6.917,0,0,1,4.651,1.472,5.15,5.15,0,0,1,1.721,4.138v6.87a7.577,7.577,0,0,0,.63,3.413V148Zm-3.5-2.944a3.646,3.646,0,0,0,1.729-.417,2.742,2.742,0,0,0,1.172-1.121v-2.725H38.276q-3.179,0-3.384,2.2l-.015.249a1.7,1.7,0,0,0,.557,1.3A2.162,2.162,0,0,0,36.958,145.056Zm15.469-16.8v3.9h2.71v3.105h-2.71v7.91a1.889,1.889,0,0,0,.337,1.26,1.692,1.692,0,0,0,1.289.381,6.751,6.751,0,0,0,1.245-.1v3.208a8.715,8.715,0,0,1-2.563.381q-4.453,0-4.541-4.5v-8.54H45.879V132.15h2.314v-3.9ZM61.963,148H57.715V132.15h4.248Zm-4.5-19.951a2.085,2.085,0,0,1,.637-1.567,2.746,2.746,0,0,1,3.464,0,2.237,2.237,0,0,1-.007,3.149,2.715,2.715,0,0,1-3.442,0A2.078,2.078,0,0,1,57.466,128.049ZM74.033,143.62a1.364,1.364,0,0,0-.769-1.223,8.736,8.736,0,0,0-2.468-.8q-5.654-1.187-5.654-4.8a4.355,4.355,0,0,1,1.75-3.523,7.061,7.061,0,0,1,4.578-1.414,7.6,7.6,0,0,1,4.827,1.421,4.478,4.478,0,0,1,1.809,3.691H73.872a2.048,2.048,0,0,0-.586-1.5,2.48,2.48,0,0,0-1.831-.593,2.534,2.534,0,0,0-1.655.483,1.526,1.526,0,0,0-.586,1.23,1.3,1.3,0,0,0,.667,1.135,6.857,6.857,0,0,0,2.249.747,18.366,18.366,0,0,1,2.666.71q3.354,1.23,3.354,4.263a4.134,4.134,0,0,1-1.86,3.508,8.025,8.025,0,0,1-4.8,1.34,8.382,8.382,0,0,1-3.538-.71,5.936,5.936,0,0,1-2.424-1.948,4.527,4.527,0,0,1-.879-2.673h4.014a2.21,2.21,0,0,0,.835,1.729,3.312,3.312,0,0,0,2.08.6,3.065,3.065,0,0,0,1.838-.461A1.436,1.436,0,0,0,74.033,143.62ZM85.342,148H81.094V125.5h4.248Zm12.671,0a4.7,4.7,0,0,1-.425-1.421,5.122,5.122,0,0,1-4,1.714,5.627,5.627,0,0,1-3.86-1.348,4.334,4.334,0,0,1-1.531-3.4,4.479,4.479,0,0,1,1.868-3.867,9.216,9.216,0,0,1,5.4-1.362h1.948v-.908a2.612,2.612,0,0,0-.564-1.758,2.219,2.219,0,0,0-1.78-.659,2.522,2.522,0,0,0-1.677.513,1.742,1.742,0,0,0-.608,1.406H88.55a4.252,4.252,0,0,1,.85-2.549,5.616,5.616,0,0,1,2.4-1.838,8.755,8.755,0,0,1,3.486-.667,6.917,6.917,0,0,1,4.651,1.472,5.15,5.15,0,0,1,1.721,4.138v6.87a7.577,7.577,0,0,0,.63,3.413V148Zm-3.5-2.944a3.646,3.646,0,0,0,1.729-.417,2.742,2.742,0,0,0,1.172-1.121v-2.725H95.83q-3.179,0-3.384,2.2l-.015.249a1.7,1.7,0,0,0,.557,1.3A2.162,2.162,0,0,0,94.512,145.056Zm16.113-2.227,2.944-10.679h4.424L112.646,148H108.6l-5.347-15.85h4.424ZM128.818,148a4.7,4.7,0,0,1-.425-1.421,5.122,5.122,0,0,1-4,1.714,5.627,5.627,0,0,1-3.86-1.348,4.334,4.334,0,0,1-1.531-3.4,4.479,4.479,0,0,1,1.868-3.867,9.216,9.216,0,0,1,5.4-1.362h1.948v-.908a2.612,2.612,0,0,0-.564-1.758,2.219,2.219,0,0,0-1.78-.659,2.522,2.522,0,0,0-1.677.513,1.742,1.742,0,0,0-.608,1.406h-4.233a4.252,4.252,0,0,1,.85-2.549,5.616,5.616,0,0,1,2.4-1.838,8.755,8.755,0,0,1,3.486-.667,6.917,6.917,0,0,1,4.651,1.472,5.15,5.15,0,0,1,1.721,4.138v6.87a7.577,7.577,0,0,0,.63,3.413V148Zm-3.5-2.944a3.646,3.646,0,0,0,1.729-.417,2.742,2.742,0,0,0,1.172-1.121v-2.725h-1.582q-3.179,0-3.384,2.2l-.015.249a1.7,1.7,0,0,0,.557,1.3A2.162,2.162,0,0,0,125.317,145.056Z" transform="translate(896.688 3526.869)" fill="url(#linear-gradient-3)"/>
  </g>
</svg>
