<svg xmlns="http://www.w3.org/2000/svg" xmlns:xlink="http://www.w3.org/1999/xlink" width="2186" height="2186" viewBox="0 0 2186 2186"><defs><linearGradient id="a" x2="1" y2="1" gradientUnits="objectBoundingBox"><stop offset="0" stop-color="#383838"/><stop offset="0.5" stop-color="#292929"/><stop offset="1" stop-color="#181818"/></linearGradient><filter id="b" x="-15" y="839" width="2121" height="558" filterUnits="userSpaceOnUse"><feOffset dy="7" input="SourceAlpha"/><feGaussianBlur stdDeviation="5" result="c"/><feFlood/><feComposite operator="in" in2="c"/><feComposite in="SourceGraphic"/></filter><clipPath id="e"><rect width="2186" height="2186"/></clipPath></defs><g id="d" clip-path="url(#e)"><rect width="2186" height="2186" fill="url(#a)"/><g transform="matrix(1, 0, 0, 1, 0, 0)" filter="url(#b)"><path d="M1416.46,257.48a85.853,85.853,0,0,0,1.712,17.236,81.159,81.159,0,0,0,5.053,16.039,85.548,85.548,0,0,0,8.271,14.8,99,99,0,0,0,11.364,13.523,95.238,95.238,0,0,0,13.53,11.3,83.527,83.527,0,0,0,14.85,8.119,82.208,82.208,0,0,0,16.17,4.9,91.269,91.269,0,0,0,17.49,1.643,95.214,95.214,0,0,0,17.559-1.581,83.213,83.213,0,0,0,16.321-4.8,81.247,81.247,0,0,0,15-8.1,97.993,97.993,0,0,0,24.571-24.757,81.145,81.145,0,0,0,7.837-14.719,83.24,83.24,0,0,0,4.7-16.122,95.222,95.222,0,0,0,1.567-17.483V52h58.52V257.48a156.91,156.91,0,0,1-2.647,29.1,140.323,140.323,0,0,1-7.968,27.115,138.554,138.554,0,0,1-13.331,24.97,151.861,151.861,0,0,1-18.734,22.66,153.483,153.483,0,0,1-22.591,18.734,137.153,137.153,0,0,1-51.782,21.3,160.855,160.855,0,0,1-58.121,0,140.319,140.319,0,0,1-27.115-7.968,138.55,138.55,0,0,1-24.97-13.331,162.864,162.864,0,0,1-41.649-41.333,136,136,0,0,1-13.461-24.867,137.813,137.813,0,0,1-8.016-27.094,157.613,157.613,0,0,1-2.654-29.281ZM1292.82,52h75.24L1229.9,228l-36.96-47.52Zm75.24,352h-75.24l-99.88-128.48L1229.9,228ZM1018.26,52h74.36l100.32,128.48L1155.54,228Zm174.68,223.52L1092.62,404h-74.36l137.28-176ZM685.18,257.48a85.853,85.853,0,0,0,1.712,17.236,81.175,81.175,0,0,0,5.053,16.039,85.548,85.548,0,0,0,8.271,14.8A99.021,99.021,0,0,0,711.58,319.08a95.231,95.231,0,0,0,13.53,11.3,83.524,83.524,0,0,0,14.85,8.119,82.212,82.212,0,0,0,16.17,4.9,91.268,91.268,0,0,0,17.49,1.643,95.214,95.214,0,0,0,17.559-1.581,83.213,83.213,0,0,0,16.321-4.8,81.247,81.247,0,0,0,15-8.1A97.993,97.993,0,0,0,847.073,305.8a81.145,81.145,0,0,0,7.837-14.719,83.24,83.24,0,0,0,4.7-16.122,95.222,95.222,0,0,0,1.567-17.483V52H919.7V257.48a156.9,156.9,0,0,1-2.647,29.1,140.314,140.314,0,0,1-7.968,27.115,138.554,138.554,0,0,1-13.331,24.97,151.854,151.854,0,0,1-18.734,22.66,153.483,153.483,0,0,1-22.591,18.734,137.154,137.154,0,0,1-51.783,21.3,160.854,160.854,0,0,1-58.121,0,140.318,140.318,0,0,1-27.115-7.968,138.55,138.55,0,0,1-24.97-13.331,162.864,162.864,0,0,1-41.649-41.333,136,136,0,0,1-13.461-24.867,137.813,137.813,0,0,1-8.016-27.094,157.613,157.613,0,0,1-2.654-29.281ZM473.1,110.08,531.62,52V404L473.1,345.04Z" transform="translate(-15 839)" fill="#fff"/></g></g></svg>