<svg xmlns="http://www.w3.org/2000/svg" xmlns:xlink="http://www.w3.org/1999/xlink" width="2186" height="2186" viewBox="0 0 2186 2186"><defs><linearGradient id="a" x2="1" y2="1" gradientUnits="objectBoundingBox"><stop offset="0" stop-color="#383838"/><stop offset="0.5" stop-color="#292929"/><stop offset="1" stop-color="#181818"/></linearGradient><filter id="b" x="-15" y="839" width="2121" height="558" filterUnits="userSpaceOnUse"><feOffset dy="7" input="SourceAlpha"/><feGaussianBlur stdDeviation="5" result="c"/><feFlood/><feComposite operator="in" in2="c"/><feComposite in="SourceGraphic"/></filter><clipPath id="e"><rect width="2186" height="2186"/></clipPath></defs><g id="d" clip-path="url(#e)"><rect width="2186" height="2186" fill="url(#a)"/><g transform="matrix(1, 0, 0, 1, 0, 0)" filter="url(#b)"><path d="M1932.1,52l-176,352-33-65.56L1866.543,52Zm-539,205.48a85.853,85.853,0,0,0,1.712,17.236,81.159,81.159,0,0,0,5.053,16.039,85.548,85.548,0,0,0,8.271,14.8A99,99,0,0,0,1419.5,319.08a95.231,95.231,0,0,0,13.53,11.3,83.524,83.524,0,0,0,14.85,8.119,82.208,82.208,0,0,0,16.17,4.9,91.269,91.269,0,0,0,17.49,1.643,95.214,95.214,0,0,0,17.559-1.581,83.213,83.213,0,0,0,16.321-4.8,81.247,81.247,0,0,0,15-8.1A98,98,0,0,0,1555,305.8a81.145,81.145,0,0,0,7.837-14.719,83.24,83.24,0,0,0,4.7-16.122,95.222,95.222,0,0,0,1.567-17.483V52h58.52V257.48a156.91,156.91,0,0,1-2.647,29.1,140.323,140.323,0,0,1-7.968,27.115,138.555,138.555,0,0,1-13.331,24.97,151.853,151.853,0,0,1-18.734,22.66,153.483,153.483,0,0,1-22.591,18.734,137.154,137.154,0,0,1-51.783,21.3,160.854,160.854,0,0,1-58.121,0,140.317,140.317,0,0,1-27.115-7.968,138.55,138.55,0,0,1-24.97-13.331,162.867,162.867,0,0,1-41.649-41.333,136,136,0,0,1-13.461-24.867,137.813,137.813,0,0,1-8.016-27.094,157.613,157.613,0,0,1-2.654-29.281Zm-93.72,141.68V404h-234.52V345.04h176Zm0-347.16-58.52,58.96h-176V52Zm0,146.96v58.52h-234.52V198.96h234.52Zm-361.438,158.2h-44.9V404h44.9ZM642.977,370.12A132.235,132.235,0,0,1,627.893,351.8a114.623,114.623,0,0,1-10.876-19.965,110.716,110.716,0,0,1-6.586-21.615,120.3,120.3,0,0,1-2.214-23.265V52h59.4V286.96a61.832,61.832,0,0,0,1.079,11.722,52.853,52.853,0,0,0,8.759,20.639,61.9,61.9,0,0,0,7.762,9l-25.96,25.96Zm124.08-42.24,42.24,42.24a125.13,125.13,0,0,1-18.067,14.761,111.224,111.224,0,0,1-41.58,16.981A126.468,126.468,0,0,1,726.137,404V345.04a60.086,60.086,0,0,0,11.468-1.073,54.075,54.075,0,0,0,10.642-3.217,55.075,55.075,0,0,0,9.818-5.362A63.2,63.2,0,0,0,767.057,327.88Zm-414.92-70.4a46.051,46.051,0,0,0-8.841.825,40.335,40.335,0,0,0-8.1,2.475,41.614,41.614,0,0,0-7.439,4.125,50.111,50.111,0,0,0-6.861,5.775,56.063,56.063,0,0,0-5.589,6.854,45.389,45.389,0,0,0-4.146,7.391,40.542,40.542,0,0,0-2.578,7.968,41.29,41.29,0,0,0-.887,8.587,42.941,42.941,0,0,0,.935,8.91q.454,2.145,1.107,4.207t1.478,4.043a40.583,40.583,0,0,0,1.815,4.056,37.85,37.85,0,0,0,2.145,3.644,39.159,39.159,0,0,0,2.475,3.314c.88,1.059,1.815,2.076,2.8,3.066a38.006,38.006,0,0,0,3.135,2.805A39.414,39.414,0,0,0,327.057,338a42.291,42.291,0,0,0,3.795,2.145q1.98.99,4.125,1.815a36.516,36.516,0,0,0,4.042,1.409,40.59,40.59,0,0,0,4.208.956q2.145.371,4.373.543t4.537.172V404a109.949,109.949,0,0,1-20.625-1.891,95.98,95.98,0,0,1-36.3-15,107.788,107.788,0,0,1-15.675-13.028,111.436,111.436,0,0,1-13.282-15.923,97.464,97.464,0,0,1-9.488-17.407,96.1,96.1,0,0,1-5.693-18.893,110.369,110.369,0,0,1,0-40.755,96.1,96.1,0,0,1,5.693-18.893,97.465,97.465,0,0,1,9.488-17.408,111.436,111.436,0,0,1,13.282-15.922,107.788,107.788,0,0,1,15.675-13.028,95.98,95.98,0,0,1,36.3-15,109.949,109.949,0,0,1,20.625-1.891H439.7a48.382,48.382,0,0,0,9.1-.825,40.869,40.869,0,0,0,8.229-2.475,41.315,41.315,0,0,0,7.487-4.125,49.749,49.749,0,0,0,6.868-5.775,47.813,47.813,0,0,0,5.452-6.861,41.462,41.462,0,0,0,3.843-7.439,42.245,42.245,0,0,0,2.276-8.1,50.333,50.333,0,0,0,.749-8.841q0-2.145-.172-4.283t-.543-4.242a40.927,40.927,0,0,0-.956-4.159,36.9,36.9,0,0,0-1.409-4.036q-.825-1.98-1.815-3.871t-2.145-3.664a41.959,41.959,0,0,0-2.475-3.417,39.067,39.067,0,0,0-2.805-3.128c-1.1-1.1-2.2-2.117-3.321-3.059a40.808,40.808,0,0,0-3.445-2.606,37.285,37.285,0,0,0-3.692-2.193,39.9,39.9,0,0,0-4.063-1.822,36.528,36.528,0,0,0-4.042-1.409,40.6,40.6,0,0,0-4.208-.956q-2.145-.371-4.373-.543t-4.537-.172V52a109.371,109.371,0,0,1,20.625,1.9,94.571,94.571,0,0,1,36.3,15.18A106.767,106.767,0,0,1,512.3,82.36a114.486,114.486,0,0,1,13.028,15.854,98.2,98.2,0,0,1,9.357,17.256,95.672,95.672,0,0,1,5.644,18.741,106.7,106.7,0,0,1,1.891,20.309,110.082,110.082,0,0,1-1.891,20.632,97.525,97.525,0,0,1-15,36.479A112.279,112.279,0,0,1,512.3,227.56a107.787,107.787,0,0,1-15.675,13.028,95.982,95.982,0,0,1-36.3,15A109.949,109.949,0,0,1,439.7,257.48Z" transform="translate(-15 839)" fill="#fff"/></g></g></svg>