<svg id="Group_207" data-name="Group 207" xmlns="http://www.w3.org/2000/svg" width="294" height="294" viewBox="0 0 294 294">
  <g id="Rectangle_53" data-name="Rectangle 53" fill="#2a2a2a">
    <path d="M0,0H294V294H0Z" stroke="none"/>
    <path d="M 293 293 L 293 1 L 1 1 L 1 293 L 293 293 M 294 294 L 0 294 L 0 0 L 294 0 L 294 294 Z" stroke="none" fill="#2a2a2a"/>
  </g>
  <path id="I_currently_work_as_a_senior_web_developer_at_SHARKANI._I_mainly_improve_UI_UX_and_take_care_of_the_process_of_creating_digital_products_such_as_websites_e-shops_" data-name="I currently work as 
a senior web developer at SHARKANI. I mainly improve UI&amp;UX and take care of the process 
of creating digital products, such as websites, e-shops…" d="M238.177,23H241.4V7.359h-3.223Zm-13.095-2.288q-.859,0-1.4-.473t-.559-1.257h-2.911q.011,1.182.645,2.165t1.735,1.525q1.1.542,2.433.542,2.492,0,3.932-1.584t1.439-4.377v-.2q0-2.686-1.429-4.286t-3.921-1.6q-2.181,0-3.5,1.241t-1.337,3.3h2.911q.021-.9.559-1.466t1.418-.564q1.085,0,1.638.79t.553,2.562v.322q0,1.794-.548,2.578T225.082,20.712Zm-13.6,1.106q1.149,1.4,3.18,1.4,1.869,0,2.852-1.074t1-3.147V11.377h-3.1v7.509q0,1.815-1.654,1.815-1.579,0-2.17-1.1V11.377h-3.115V23H211.4ZM199.6,14.288q.634-.086,1.117-.086,1.762,0,2.31,1.192V23h3.1V11.377H203.2l-.086,1.386q-.935-1.6-2.589-1.6-.516,0-.967.14Zm-8.024,0q.634-.086,1.117-.086,1.762,0,2.31,1.192V23h3.1V11.377h-2.933l-.086,1.386q-.935-1.6-2.589-1.6-.516,0-.967.14Zm-6.843,8.927q2.557,0,4.163-1.568t1.606-4.179v-.3q0-1.751-.677-3.131t-1.917-2.127q-1.241-.747-2.831-.747-2.385,0-3.754,1.5t-1.37,4.265V18.2h7.4q-.15,1.139-.908,1.826t-1.917.688q-1.794,0-2.8-1.3L180.2,21.12q.7.988,1.891,1.542T184.734,23.215Zm.354-9.539q.924,0,1.5.623t.736,1.783H183v-.247q.021-1.031.559-1.6T185.089,13.676Zm-9.754-2.3-.1,1.343q-1.246-1.558-3.341-1.558-1.848,0-2.75,1.085t-.924,3.244V23h3.1V15.566q0-.988.43-1.434t1.429-.446q1.311,0,1.966,1.117V23h3.1V11.377ZM162.154,8.52v2.857h-1.987v2.277h1.987v5.8q0,.645-.247.924t-.945.279q-.516,0-.913-.075v2.353q.913.279,1.88.279,3.266,0,3.33-3.3V13.654h1.7V11.377h-1.7V8.52ZM155.161,23h3.115V6.5h-3.115Zm-6.9-4.394-2.148-7.229h-3.33L147.459,24.8l.258.612q1.042,2.277,3.438,2.277.677,0,1.375-.2V25.138l-.473.011q-.881,0-1.316-.269t-.682-.892l-.365-.956,4.071-11.655h-3.341Zm-22.29.172-1.525-7.4h-3L124.417,23h2.6l2.2-7.315,2.2,7.315h2.589l2.965-11.623h-3l-1.515,7.391-2.127-7.391h-2.245Zm-5.575-1.7q0-1.729-.666-3.083T117.816,11.9q-1.251-.741-2.906-.741-2.353,0-3.84,1.439t-1.66,3.91l-.021.795q0,2.675,1.493,4.292t4.007,1.617q2.514,0,4.012-1.611t1.5-4.383Zm-3.1.226q0,1.654-.623,2.53t-1.783.875q-1.128,0-1.762-.865t-.634-2.766q0-1.622.634-2.514t1.783-.892q1.139,0,1.762.886T117.295,17.307Zm-16.35-3.019q.634-.086,1.117-.086,1.762,0,2.31,1.192V23h3.1V11.377h-2.933l-.086,1.386q-.935-1.6-2.589-1.6-.516,0-.967.14Zm-5.715,4.05,1.117,1.117V23h3.1V6.5h-3.1v9.142l-.6-.773-2.976-3.491H89.043l4.2,4.845L88.678,23h3.566ZM75.486,23q.215-.419.312-1.042,1.128,1.257,2.933,1.257,1.708,0,2.831-.988t1.123-2.492q0-1.848-1.37-2.836t-3.958-1H75.927v-.666q0-.806.414-1.289t1.305-.483q.784,0,1.23.376t.446,1.031h3.1q0-1.01-.623-1.869t-1.762-1.348q-1.139-.489-2.557-.489-2.148,0-3.411,1.08t-1.262,3.035v5.038q-.011,1.654-.462,2.5V23Zm2.567-2.159q-.687,0-1.268-.306t-.859-.822v-2h1.16q2.331,0,2.481,1.611l.011.183q0,.58-.408.956T78.054,20.841ZM64.132,19.788q0-.569.564-.9t1.81-.585q4.146-.87,4.146-3.523,0-1.547-1.284-2.583t-3.357-1.037q-2.213,0-3.54,1.042t-1.327,2.707h3.1q0-.666.43-1.1t1.343-.435q.784,0,1.214.354t.43.9q0,.516-.489.833t-1.649.548q-1.16.231-1.955.521-2.46.9-2.46,3.126,0,1.59,1.364,2.573T66,23.215q1.461,0,2.594-.521t1.778-1.429q.645-.908.645-1.96H68.074q-.043.827-.612,1.268t-1.525.44q-.892,0-1.348-.338T64.132,19.788ZM235.072,52q.215-.419.312-1.042,1.128,1.257,2.933,1.257,1.708,0,2.831-.988t1.123-2.492q0-1.848-1.37-2.836t-3.958-1h-1.429v-.666q0-.806.414-1.289t1.305-.483q.784,0,1.23.376t.446,1.031h3.1q0-1.01-.623-1.869t-1.762-1.348q-1.139-.489-2.557-.489-2.148,0-3.411,1.08T232.4,44.276v5.038q-.011,1.654-.462,2.5V52Zm2.567-2.159q-.687,0-1.268-.306t-.859-.822v-2h1.16q2.331,0,2.481,1.611l.011.183q0,.58-.408.956T237.64,49.841Zm-19.4-1.053q0-.569.564-.9t1.81-.585q4.146-.87,4.146-3.523,0-1.547-1.284-2.583t-3.357-1.037q-2.213,0-3.54,1.042t-1.327,2.707h3.1q0-.666.43-1.1t1.343-.435q.784,0,1.214.354t.43.9q0,.516-.489.833t-1.649.548q-1.16.231-1.955.521-2.46.9-2.46,3.126,0,1.59,1.364,2.573t3.523.983q1.461,0,2.594-.521t1.778-1.429q.645-.908.645-1.96h-2.943q-.043.827-.612,1.268t-1.525.44q-.892,0-1.348-.338T218.239,48.788Zm-10.366,3.427q2.557,0,4.163-1.568t1.606-4.179v-.3q0-1.751-.677-3.131t-1.917-2.127q-1.241-.747-2.831-.747-2.385,0-3.754,1.5t-1.37,4.265V47.2h7.4q-.15,1.139-.908,1.826t-1.917.688q-1.794,0-2.8-1.3L203.34,50.12q.7.988,1.891,1.542T207.873,52.215Zm.354-9.539q.924,0,1.5.623t.736,1.783h-4.318v-.247q.021-1.031.559-1.6T208.228,42.676Zm-9.754-2.3-.1,1.343q-1.246-1.558-3.341-1.558-1.848,0-2.75,1.085t-.924,3.244V52h3.1V44.566q0-.988.43-1.434t1.429-.446q1.311,0,1.966,1.117V52h3.1V40.377ZM185.733,52h3.115V40.377h-3.115Zm3.3-14.631q0-.7-.467-1.149t-1.273-.451q-.795,0-1.268.451t-.473,1.149q0,.709.478,1.16t1.262.451q.784,0,1.262-.451T189.031,37.369Zm-5.371,8.712q0-1.729-.666-3.083T181.077,40.9q-1.251-.741-2.906-.741-2.353,0-3.84,1.439t-1.66,3.91l-.021.795q0,2.675,1.493,4.292t4.007,1.617q2.514,0,4.012-1.611t1.5-4.383Zm-3.1.226q0,1.654-.623,2.53t-1.783.875q-1.128,0-1.762-.865t-.634-2.766q0-1.622.634-2.514t1.783-.892q1.139,0,1.762.886T180.556,46.307Zm-16.35-3.019q.634-.086,1.117-.086,1.762,0,2.31,1.192V52h3.1V40.377H167.8l-.086,1.386q-.935-1.6-2.589-1.6-.516,0-.967.14Zm-17.08,4.49-1.525-7.4h-3L145.568,52h2.6l2.2-7.315,2.2,7.315h2.589l2.965-11.623h-3l-1.515,7.391-2.127-7.391h-2.245Zm-11.408,4.437q2.557,0,4.163-1.568t1.606-4.179v-.3q0-1.751-.677-3.131t-1.917-2.127q-1.241-.747-2.831-.747-2.385,0-3.754,1.5t-1.37,4.265V47.2h7.4q-.15,1.139-.908,1.826t-1.917.688q-1.794,0-2.8-1.3l-1.525,1.708q.7.988,1.891,1.542T135.718,52.215Zm.354-9.539q.924,0,1.5.623t.736,1.783h-4.318v-.247q.021-1.031.559-1.6T136.072,42.676ZM118.7,46.3q0,2.793,1.192,4.356t3.33,1.563q1.891,0,3.019-1.45l.14,1.235h2.793V35.5h-3.1v5.919q-1.074-1.257-2.825-1.257-2.127,0-3.335,1.563t-1.208,4.4Zm3.1-.226q0-1.762.559-2.573t1.665-.811q1.482,0,2.041,1.214v4.587q-.569,1.225-2.062,1.225t-1.977-1.482Q121.807,47.521,121.807,46.07Zm-10.012.032q0-2.718-1.219-4.329t-3.335-1.611q-1.7,0-2.8,1.268V35.5h-3.115V52h2.8l.15-1.235q1.16,1.45,2.986,1.45,2.052,0,3.292-1.617T111.795,46.1Zm-3.1.226q0,1.633-.569,2.5t-1.654.87q-1.439,0-2.03-1.214V43.9q.58-1.214,2.009-1.214Q108.69,42.687,108.69,46.328ZM93.565,52.215q2.557,0,4.163-1.568t1.606-4.179v-.3q0-1.751-.677-3.131T96.74,40.909q-1.241-.747-2.831-.747-2.385,0-3.754,1.5t-1.37,4.265V47.2h7.4q-.15,1.139-.908,1.826t-1.917.688q-1.794,0-2.8-1.3L89.032,50.12q.7.988,1.891,1.542T93.565,52.215Zm.354-9.539q.924,0,1.5.623t.736,1.783H91.836v-.247q.021-1.031.559-1.6T93.92,42.676ZM82.813,48.208l-2.159-7.831H77.409L81.33,52h2.965l3.921-11.623H84.972ZM70.7,52.215q2.557,0,4.163-1.568t1.606-4.179v-.3q0-1.751-.677-3.131T73.87,40.909q-1.241-.747-2.831-.747-2.385,0-3.754,1.5t-1.37,4.265V47.2h7.4q-.15,1.139-.908,1.826t-1.917.688q-1.794,0-2.8-1.3L66.162,50.12q.7.988,1.891,1.542T70.7,52.215Zm.354-9.539q.924,0,1.5.623t.736,1.783H68.966v-.247q.021-1.031.559-1.6T71.05,42.676ZM60.877,52h3.115V35.5H60.877ZM58.8,46.081q0-1.729-.666-3.083T56.22,40.9q-1.251-.741-2.906-.741-2.353,0-3.84,1.439t-1.66,3.91l-.021.795q0,2.675,1.493,4.292t4.007,1.617q2.514,0,4.012-1.611t1.5-4.383Zm-3.1.226q0,1.654-.623,2.53t-1.783.875q-1.128,0-1.762-.865T50.9,46.081q0-1.622.634-2.514t1.783-.892q1.139,0,1.762.886T55.7,46.307ZM35.418,46.3q0,2.686,1.219,4.3t3.292,1.617q1.762,0,2.847-1.225v5.479h3.1V40.377H43l-.107,1.139q-1.128-1.354-2.943-1.354-2.148,0-3.341,1.59t-1.192,4.383Zm3.1-.226q0-1.622.575-2.5t1.67-.881q1.461,0,2.009,1.117v4.759q-.569,1.149-2.03,1.149Q38.522,49.712,38.522,46.07ZM28.146,52.215q2.557,0,4.163-1.568t1.606-4.179v-.3q0-1.751-.677-3.131T31.32,40.909q-1.241-.747-2.831-.747-2.385,0-3.754,1.5t-1.37,4.265V47.2h7.4q-.15,1.139-.908,1.826t-1.917.688q-1.794,0-2.8-1.3L23.612,50.12q.7.988,1.891,1.542T28.146,52.215Zm.354-9.539q.924,0,1.5.623t.736,1.783H26.416v-.247q.021-1.031.559-1.6T28.5,42.676Zm-13.428.612q.634-.086,1.117-.086,1.762,0,2.31,1.192V52h3.1V40.377H18.671l-.086,1.386q-.935-1.6-2.589-1.6-.516,0-.967.14ZM235.072,81q.215-.419.312-1.042,1.128,1.257,2.933,1.257,1.708,0,2.831-.988t1.123-2.492q0-1.848-1.37-2.836t-3.958-1h-1.429v-.666q0-.806.414-1.289t1.305-.483q.784,0,1.23.376t.446,1.031h3.1q0-1.01-.623-1.869t-1.762-1.348q-1.139-.489-2.557-.489-2.148,0-3.411,1.08T232.4,73.276v5.038q-.011,1.654-.462,2.5V81Zm2.567-2.159q-.687,0-1.268-.306t-.859-.822v-2h1.16q2.331,0,2.481,1.611l.011.183q0,.58-.408.956T237.64,78.841ZM226.3,66.52v2.857h-1.987v2.277H226.3v5.8q0,.645-.247.924t-.945.279q-.516,0-.913-.075v2.353q.913.279,1.88.279,3.266,0,3.33-3.3V71.654h1.7V69.377h-1.7V66.52ZM208.786,76.9q0-.913.645-1.4t2.32-1.031q1.676-.542,2.653-1.069,2.664-1.439,2.664-3.878,0-1.268-.714-2.261T214.3,65.7q-1.337-.559-3-.559t-2.986.607q-1.311.607-2.036,1.713t-.725,2.514h3.223q0-1.074.677-1.67t1.9-.6q1.182,0,1.837.5t.655,1.316q0,.763-.768,1.278t-2.261.967q-2.75.827-4.007,2.052t-1.257,3.051q0,2.03,1.536,3.185t4.136,1.155q1.8,0,3.287-.661t2.261-1.81q.779-1.149.779-2.664h-3.233q0,2.589-3.094,2.589-1.149,0-1.794-.467T208.786,76.9ZM190.643,81h3.223V74.3h6.284V81h3.223V65.359h-3.223V71.7h-6.284V65.359h-3.223ZM178.8,77.777h5.65L185.529,81h3.427l-5.822-15.641h-2.986L174.293,81h3.427Zm4.78-2.61h-3.91l1.966-5.854Zm-16.543.107h2.567V81h3.223V65.359h-5.812q-2.771,0-4.275,1.235t-1.5,3.491q0,1.6.693,2.669t2.1,1.7L160.65,80.85V81h3.459Zm2.567-2.61h-2.6q-1.214,0-1.88-.618t-.666-1.7q0-1.106.628-1.74t1.928-.634h2.589Zm-15.716,2.063,1.676,1.8V81h3.223V65.359h-3.223v7.09L154.151,70.5l-3.985-5.146H146.2l5.554,6.95L146.041,81h3.835ZM136,77.777h5.65L142.722,81h3.427l-5.822-15.641H137.34L131.485,81h3.427Zm4.78-2.61h-3.91l1.966-5.854ZM117.306,81h3.223L126.8,70.709V81h3.223V65.359H126.8l-6.284,10.313V65.359h-3.212Zm-6.241,0h3.223V65.359h-3.223Zm-2.943-1.525q0-.741-.5-1.2t-1.251-.462q-.763,0-1.262.462t-.5,1.2q0,.73.494,1.187t1.268.457q.763,0,1.257-.457T108.121,79.475ZM92.781,81H96V65.359H92.781ZM81.609,69.377l-.1,1.3q-1.235-1.515-3.341-1.515-2.245,0-3.083,1.772-1.225-1.772-3.491-1.772-1.891,0-2.814,1.1t-.924,3.314V81h3.115V73.588q0-.988.387-1.445t1.364-.457q1.4,0,1.934,1.332L74.648,81h3.1V73.6q0-1.01.4-1.461t1.354-.451q1.321,0,1.912,1.1V81h3.1V69.377ZM58.739,81q.215-.419.312-1.042,1.128,1.257,2.933,1.257,1.708,0,2.831-.988t1.123-2.492q0-1.848-1.37-2.836t-3.958-1H59.18v-.666q0-.806.414-1.289t1.305-.483q.784,0,1.23.376t.446,1.031h3.1q0-1.01-.623-1.869t-1.762-1.348q-1.139-.489-2.557-.489-2.148,0-3.411,1.08t-1.262,3.035v5.038q-.011,1.654-.462,2.5V81Zm2.567-2.159q-.687,0-1.268-.306t-.859-.822v-2h1.16q2.331,0,2.481,1.611l.011.183q0,.58-.408.956T61.307,78.841ZM50.4,81h3.115V69.377H50.4Zm3.3-14.631q0-.7-.467-1.149t-1.273-.451q-.795,0-1.268.451t-.473,1.149q0,.709.478,1.16t1.262.451q.784,0,1.262-.451T53.7,66.369Zm-8.712,3.008-.1,1.343q-1.246-1.558-3.341-1.558-1.848,0-2.75,1.085t-.924,3.244V81h3.1V73.566q0-.988.43-1.434t1.429-.446q1.311,0,1.966,1.117V81h3.1V69.377ZM32.249,81h3.115V64.5H32.249Zm-6.9-4.394L23.2,69.377h-3.33L24.547,82.8l.258.612q1.042,2.277,3.438,2.277.677,0,1.375-.2V83.138l-.473.011q-.881,0-1.316-.269t-.682-.892l-.365-.956,4.071-11.655H27.512ZM238.531,110h3.115V98.377h-3.115Zm3.3-14.631q0-.7-.467-1.149t-1.273-.451q-.795,0-1.268.451t-.473,1.149q0,.709.478,1.16t1.262.451q.784,0,1.262-.451T241.829,95.369Zm-8.766,3.008-.1,1.3q-1.235-1.515-3.341-1.515-2.245,0-3.083,1.772-1.225-1.772-3.491-1.772-1.891,0-2.814,1.1t-.924,3.314V110h3.115v-7.412q0-.988.387-1.445t1.364-.457q1.4,0,1.934,1.332L226.1,110h3.1v-7.4q0-1.01.4-1.461t1.354-.451q1.321,0,1.912,1.1V110h3.1V98.377Zm-26.6,5.919q0,2.686,1.219,4.3t3.292,1.617q1.762,0,2.847-1.225v5.479h3.1V98.377H214.05l-.107,1.139q-1.128-1.354-2.943-1.354-2.148,0-3.341,1.59t-1.192,4.383Zm3.1-.226q0-1.622.575-2.5t1.67-.881q1.461,0,2.009,1.117v4.759q-.569,1.149-2.03,1.149Q209.57,107.712,209.57,104.07Zm-11.559-2.782q.634-.086,1.117-.086,1.762,0,2.31,1.192V110h3.1V98.377H201.61l-.086,1.386q-.935-1.6-2.589-1.6-.516,0-.967.14Zm-.623,2.793q0-1.729-.666-3.083T194.805,98.9q-1.251-.741-2.906-.741-2.353,0-3.84,1.439t-1.66,3.91l-.021.795q0,2.675,1.493,4.292t4.007,1.617q2.514,0,4.012-1.611t1.5-4.383Zm-3.1.226q0,1.654-.623,2.53t-1.783.875q-1.128,0-1.762-.865t-.634-2.766q0-1.622.634-2.514t1.783-.892q1.139,0,1.762.886T194.284,104.307Zm-14.008,1.9-2.159-7.831h-3.244L178.794,110h2.965l3.921-11.623h-3.244Zm-12.117,4.007q2.557,0,4.163-1.568t1.606-4.179v-.3q0-1.751-.677-3.131t-1.917-2.127q-1.241-.747-2.831-.747-2.385,0-3.754,1.5t-1.37,4.265V105.2h7.4q-.15,1.139-.908,1.826t-1.917.688q-1.794,0-2.8-1.3l-1.525,1.708q.7.988,1.891,1.542T168.159,110.215Zm.354-9.539q.924,0,1.5.623t.736,1.783H166.43v-.247q.021-1.031.559-1.6T168.514,100.676ZM144.1,94.359v10.3q0,2.567,1.606,4.061t4.388,1.493q2.739,0,4.351-1.45t1.644-3.985V94.359h-3.223v10.323q0,1.536-.736,2.24t-2.036.7q-2.718,0-2.761-2.857V94.359ZM138.027,110h3.223V94.359h-3.223Zm-2.353-4.211q0-1.085-.607-2.009t-2.229-2.052q.7-.935,1.1-1.756t.4-1.713q0-1.826-1.155-2.97t-3.11-1.144q-1.751,0-2.874,1.042t-1.123,2.6q0,1.869,1.891,3.3l1.2.87-2.7,3.137q-.634-1.246-.634-2.75h-2.643q0,3.051,1.407,4.941L122.258,110h3.523l.806-.924q1.729,1.139,3.975,1.139,2.32,0,3.717-1.219T135.675,105.789Zm-5.264,1.934q-1.117,0-2.116-.623l3.083-3.566.226.161q.956.816.956,1.923,0,.935-.6,1.52T130.411,107.723Zm1.139-9.507q0,.806-.945,2.03l-.827-.548q-.634-.408-.875-.795t-.242-.924q0-.537.4-.935t1.021-.4q.666,0,1.069.43T131.55,98.216Zm-22.784-3.856v10.3q0,2.567,1.606,4.061t4.388,1.493q2.739,0,4.351-1.45t1.644-3.985V94.359h-3.223v10.323q0,1.536-.736,2.24t-2.036.7q-2.718,0-2.761-2.857V94.359Zm-8.239,5.393-2.933-5.393H93.888l4.555,7.756L93.77,110h3.749l3.008-5.479L103.534,110h3.749l-4.673-7.885,4.555-7.756h-3.706ZM80.138,110q.215-.419.312-1.042,1.128,1.257,2.933,1.257,1.708,0,2.831-.988t1.123-2.492q0-1.848-1.37-2.836t-3.958-1H80.578v-.666q0-.806.414-1.289t1.305-.483q.784,0,1.23.376t.446,1.031h3.1q0-1.01-.623-1.869t-1.762-1.348q-1.139-.489-2.557-.489-2.148,0-3.411,1.08t-1.262,3.035v5.038q-.011,1.654-.462,2.5V110Zm2.567-2.159q-.687,0-1.268-.306t-.859-.822v-2h1.16q2.331,0,2.481,1.611l.011.183q0,.58-.408.956T82.705,107.841ZM72.221,98.377l-.1,1.343q-1.246-1.558-3.341-1.558-1.848,0-2.75,1.085t-.924,3.244V110h3.1v-7.434q0-.988.43-1.434t1.429-.446q1.311,0,1.966,1.117V110h3.1V98.377ZM63.24,104.1q0-2.718-1.219-4.329t-3.335-1.611q-1.7,0-2.8,1.268V93.5H52.767V110h2.8l.15-1.235q1.16,1.45,2.986,1.45,2.052,0,3.292-1.617T63.24,104.1Zm-3.1.226q0,1.633-.569,2.5t-1.654.87q-1.439,0-2.03-1.214V101.9q.58-1.214,2.009-1.214Q60.136,100.687,60.136,104.328ZM41.165,95.52v2.857H39.178v2.277h1.987v5.8q0,.645-.247.924t-.945.279q-.516,0-.913-.075v2.353q.913.279,1.88.279,3.266,0,3.33-3.3v-6.263h1.7V98.377h-1.7V95.52ZM30.713,110q.215-.419.312-1.042,1.128,1.257,2.933,1.257,1.708,0,2.831-.988t1.123-2.492q0-1.848-1.37-2.836t-3.958-1H31.153v-.666q0-.806.414-1.289t1.305-.483q.784,0,1.23.376t.446,1.031h3.1q0-1.01-.623-1.869t-1.762-1.348q-1.139-.489-2.557-.489-2.148,0-3.411,1.08t-1.262,3.035v5.038q-.011,1.654-.462,2.5V110Zm2.567-2.159q-.687,0-1.268-.306t-.859-.822v-2h1.16q2.331,0,2.481,1.611l.011.183q0,.58-.408.956T33.28,107.841Zm-11.849-2.5,1.117,1.117V110h3.1V93.5h-3.1v9.142l-.6-.773-2.976-3.491H15.244l4.2,4.845L14.879,110h3.566Zm-12.88,4.877q2.557,0,4.163-1.568t1.606-4.179v-.3q0-1.751-.677-3.131t-1.917-2.127q-1.241-.747-2.831-.747-2.385,0-3.754,1.5t-1.37,4.265V105.2h7.4q-.15,1.139-.908,1.826t-1.917.688q-1.794,0-2.8-1.3L4.019,108.12q.7.988,1.891,1.542T8.552,110.215Zm.354-9.539q.924,0,1.5.623t.736,1.783H6.822v-.247q.021-1.031.559-1.6T8.906,100.676Zm228.067,36.036q-.859,0-1.4-.473t-.559-1.257h-2.911q.011,1.182.645,2.165t1.735,1.525q1.1.542,2.433.542,2.492,0,3.932-1.584t1.439-4.377v-.2q0-2.686-1.429-4.286t-3.921-1.6q-2.181,0-3.5,1.241t-1.337,3.3h2.911q.021-.9.559-1.466t1.418-.564q1.085,0,1.638.79t.553,2.562v.322q0,1.794-.548,2.578T236.974,136.712ZM223.6,139q.215-.419.312-1.042,1.128,1.257,2.933,1.257,1.708,0,2.831-.988t1.123-2.492q0-1.848-1.37-2.836t-3.958-1H224.04v-.666q0-.806.414-1.289t1.305-.483q.784,0,1.23.376t.446,1.031h3.1q0-1.01-.623-1.869t-1.762-1.348q-1.139-.489-2.557-.489-2.148,0-3.411,1.08t-1.262,3.035v5.038q-.011,1.654-.462,2.5V139Zm2.567-2.159q-.687,0-1.268-.306t-.859-.822v-2h1.16q2.331,0,2.481,1.611l.011.183q0,.58-.408.956T226.167,136.841Zm-14.158-6.553q.634-.086,1.117-.086,1.762,0,2.31,1.192V139h3.1V127.377h-2.933l-.086,1.386q-.935-1.6-2.589-1.6-.516,0-.967.14Zm-6.843,8.927q2.557,0,4.163-1.568t1.606-4.179v-.3q0-1.751-.677-3.131t-1.917-2.127q-1.241-.747-2.831-.747-2.385,0-3.754,1.5t-1.37,4.265V134.2h7.4q-.15,1.139-.908,1.826t-1.917.688q-1.794,0-2.8-1.3l-1.525,1.708q.7.988,1.891,1.542T205.166,139.215Zm.354-9.539q.924,0,1.5.623t.736,1.783h-4.318v-.247q.021-1.031.559-1.6T205.521,129.676Zm-11.892,3.405q0-1.729-.666-3.083t-1.917-2.095q-1.251-.741-2.906-.741-2.353,0-3.84,1.439t-1.66,3.91l-.021.795q0,2.675,1.493,4.292t4.007,1.617q2.514,0,4.012-1.611t1.5-4.383Zm-3.1.226q0,1.654-.623,2.53t-1.783.875q-1.128,0-1.762-.865t-.634-2.766q0-1.622.634-2.514t1.783-.892q1.139,0,1.762.886T190.524,133.307ZM179.857,139v-9.346h1.729v-2.277h-1.729v-.988q0-1.955-1.123-3.035t-3.142-1.08q-.645,0-1.579.215l.032,2.406q.387-.1.945-.1,1.751,0,1.751,1.644v.935h-2.31v2.277h2.31V139Zm-16.231-14.48v2.857h-1.987v2.277h1.987v5.8q0,.645-.247.924t-.945.279q-.516,0-.913-.075v2.353q.913.279,1.88.279,3.266,0,3.33-3.3v-6.263h1.7v-2.277h-1.7V124.52Zm-6.746,4.125q-1.235-1.482-3.1-1.482-3.781,0-3.835,4.394V139h3.1v-7.358q0-1,.43-1.477t1.429-.478q1.364,0,1.977,1.053V139h3.1V122.5h-3.1Zm-14.631,10.57q2.557,0,4.163-1.568t1.606-4.179v-.3q0-1.751-.677-3.131t-1.917-2.127q-1.241-.747-2.831-.747-2.385,0-3.754,1.5t-1.37,4.265V134.2h7.4q-.15,1.139-.908,1.826t-1.917.688q-1.794,0-2.8-1.3l-1.525,1.708q.7.988,1.891,1.542T142.249,139.215Zm.354-9.539q.924,0,1.5.623t.736,1.783H140.52v-.247q.021-1.031.559-1.6T142.6,129.676Zm-22.838,3.62q0,2.686,1.219,4.3t3.292,1.617q1.762,0,2.847-1.225v5.479h3.1V127.377H127.35l-.107,1.139q-1.128-1.354-2.943-1.354-2.148,0-3.341,1.59t-1.192,4.383Zm3.1-.226q0-1.622.575-2.5t1.67-.881q1.461,0,2.009,1.117v4.759q-.569,1.149-2.03,1.149Q122.87,136.712,122.87,133.07Zm-11.559-2.782q.634-.086,1.117-.086,1.762,0,2.31,1.192V139h3.1V127.377H114.91l-.086,1.386q-.935-1.6-2.589-1.6-.516,0-.967.14Zm-.623,2.793q0-1.729-.666-3.083T108.1,127.9q-1.251-.741-2.906-.741-2.353,0-3.84,1.439t-1.66,3.91l-.021.795q0,2.675,1.493,4.292t4.007,1.617q2.514,0,4.012-1.611t1.5-4.383Zm-3.1.226q0,1.654-.623,2.53t-1.783.875q-1.128,0-1.762-.865t-.634-2.766q0-1.622.634-2.514t1.783-.892q1.139,0,1.762.886T107.584,133.307Zm-14.652,3.405q-.859,0-1.4-.473t-.559-1.257H88.065q.011,1.182.645,2.165t1.735,1.525q1.1.542,2.433.542,2.492,0,3.932-1.584t1.439-4.377v-.2q0-2.686-1.429-4.286t-3.921-1.6q-2.181,0-3.5,1.241t-1.337,3.3h2.911q.021-.9.559-1.466t1.418-.564q1.085,0,1.638.79t.553,2.562v.322q0,1.794-.548,2.578T92.932,136.712Zm-11.988,2.5q2.557,0,4.163-1.568t1.606-4.179v-.3q0-1.751-.677-3.131t-1.917-2.127q-1.241-.747-2.831-.747-2.385,0-3.754,1.5t-1.37,4.265V134.2h7.4q-.15,1.139-.908,1.826t-1.917.688q-1.794,0-2.8-1.3L76.41,137.12q.7.988,1.891,1.542T80.943,139.215Zm.354-9.539q.924,0,1.5.623t.736,1.783H79.214v-.247q.021-1.031.559-1.6T81.3,129.676Zm-13.191,6.112q0-.569.564-.9t1.81-.585q4.146-.87,4.146-3.523,0-1.547-1.284-2.583t-3.357-1.037q-2.213,0-3.54,1.042t-1.327,2.707h3.1q0-.666.43-1.1T70,129.375q.784,0,1.214.354t.43.9q0,.516-.489.833t-1.649.548q-1.16.231-1.955.521-2.46.9-2.46,3.126,0,1.59,1.364,2.573t3.523.983q1.461,0,2.594-.521t1.778-1.429q.645-.908.645-1.96H72.049q-.043.827-.612,1.268t-1.525.44q-.892,0-1.348-.338T68.106,135.788Zm-11.312,0q0-.569.564-.9t1.81-.585q4.146-.87,4.146-3.523,0-1.547-1.284-2.583t-3.357-1.037q-2.213,0-3.54,1.042t-1.327,2.707h3.1q0-.666.43-1.1t1.343-.435q.784,0,1.214.354t.43.9q0,.516-.489.833t-1.649.548q-1.16.231-1.955.521-2.46.9-2.46,3.126,0,1.59,1.364,2.573t3.523.983q1.461,0,2.594-.521t1.778-1.429q.645-.908.645-1.96H60.737q-.043.827-.612,1.268t-1.525.44q-.892,0-1.348-.338T56.795,135.788Zm185.5,26.293q0-1.729-.666-3.083t-1.917-2.095q-1.251-.741-2.906-.741-2.353,0-3.84,1.439t-1.66,3.91l-.021.795q0,2.675,1.493,4.292t4.007,1.617q2.514,0,4.012-1.611t1.5-4.383Zm-3.1.226q0,1.654-.623,2.53t-1.783.875q-1.128,0-1.762-.865t-.634-2.766q0-1.622.634-2.514t1.783-.892q1.139,0,1.762.886T239.187,162.307ZM228.52,168v-9.346h1.729v-2.277H228.52v-.988q0-1.955-1.123-3.035t-3.142-1.08q-.645,0-1.579.215l.032,2.406q.387-.1.945-.1,1.751,0,1.751,1.644v.935h-2.31v2.277h2.31V168Zm-17.349-2.288q-.859,0-1.4-.473t-.559-1.257H206.3q.011,1.182.645,2.165t1.735,1.525q1.1.542,2.433.542,2.492,0,3.932-1.584t1.439-4.377v-.2q0-2.686-1.429-4.286t-3.921-1.6q-2.181,0-3.5,1.241t-1.337,3.3h2.911q.021-.9.559-1.466t1.418-.564q1.085,0,1.638.79t.553,2.562v.322q0,1.794-.548,2.578T211.171,165.712ZM198,159.288q.634-.086,1.117-.086,1.762,0,2.31,1.192V168h3.1V156.377H201.6l-.086,1.386q-.935-1.6-2.589-1.6-.516,0-.967.14Zm-6.843,8.927q2.557,0,4.163-1.568t1.606-4.179v-.3q0-1.751-.677-3.131t-1.917-2.127q-1.241-.747-2.831-.747-2.385,0-3.754,1.5t-1.37,4.265V163.2h7.4q-.15,1.139-.908,1.826t-1.917.688q-1.794,0-2.8-1.3l-1.525,1.708q.7.988,1.891,1.542T191.158,168.215Zm.354-9.539q.924,0,1.5.623t.736,1.783h-4.318v-.247q.021-1.031.559-1.6T191.513,158.676ZM177.881,168q.215-.419.312-1.042,1.128,1.257,2.933,1.257,1.708,0,2.831-.988t1.123-2.492q0-1.848-1.37-2.836t-3.958-1h-1.429v-.666q0-.806.414-1.289t1.305-.483q.784,0,1.23.376t.446,1.031h3.1q0-1.01-.623-1.869t-1.762-1.348q-1.139-.489-2.557-.489-2.148,0-3.411,1.08t-1.262,3.035v5.038q-.011,1.654-.462,2.5V168Zm2.567-2.159q-.687,0-1.268-.306t-.859-.822v-2h1.16q2.331,0,2.481,1.611l.011.183q0,.58-.408.956T180.448,165.841ZM169.1,153.52v2.857h-1.987v2.277H169.1v5.8q0,.645-.247.924t-.945.279q-.516,0-.913-.075v2.353q.913.279,1.88.279,3.266,0,3.33-3.3v-6.263h1.7v-2.277h-1.7V153.52ZM162.111,168h3.115V156.377h-3.115Zm3.3-14.631q0-.7-.467-1.149t-1.273-.451q-.795,0-1.268.451t-.473,1.149q0,.709.478,1.16t1.262.451q.784,0,1.262-.451T165.409,153.369Zm-8.712,3.008-.1,1.343q-1.246-1.558-3.341-1.558-1.848,0-2.75,1.085t-.924,3.244V168h3.1v-7.434q0-.988.43-1.434t1.429-.446q1.311,0,1.966,1.117V168h3.1V156.377Zm-9.013,5.726q0-2.675-1.273-4.308t-3.432-1.633q-1.912,0-2.976,1.311l-.129-1.1h-2.814v11.236q0,1.525.693,2.653t1.95,1.719q1.257.591,2.943.591,1.278,0,2.492-.51t1.837-1.316l-1.375-1.891q-1.16,1.3-2.814,1.3-1.235,0-1.923-.661t-.687-1.875V167q1.074,1.214,2.825,1.214,2.095,0,3.389-1.638t1.294-4.345Zm-3.1.226q0,1.579-.634,2.476t-1.74.9q-1.418,0-2.03-1.063V159.75q.623-1.063,2.009-1.063,1.117,0,1.756.913T144.58,162.328Zm-14.9-.226q0-2.718-1.219-4.329t-3.335-1.611q-1.7,0-2.8,1.268V151.5h-3.115V168h2.8l.15-1.235q1.16,1.45,2.986,1.45,2.052,0,3.292-1.617T129.681,162.1Zm-3.1.226q0,1.633-.569,2.5t-1.654.87q-1.439,0-2.03-1.214V159.9q.58-1.214,2.009-1.214Q126.576,158.687,126.576,162.328ZM113.524,168h3.115V156.377h-3.115Zm3.3-14.631q0-.7-.467-1.149t-1.273-.451q-.795,0-1.268.451t-.473,1.149q0,.709.478,1.16t1.262.451q.784,0,1.262-.451T116.822,153.369Zm-5.4,8.733q0-2.675-1.273-4.308t-3.432-1.633q-1.912,0-2.976,1.311l-.129-1.1h-2.814v11.236q0,1.525.693,2.653t1.95,1.719q1.257.591,2.943.591,1.278,0,2.492-.51t1.837-1.316l-1.375-1.891q-1.16,1.3-2.814,1.3-1.235,0-1.923-.661t-.687-1.875V167q1.074,1.214,2.825,1.214,2.095,0,3.389-1.638t1.294-4.345Zm-3.1.226q0,1.579-.634,2.476t-1.74.9q-1.418,0-2.03-1.063V159.75q.623-1.063,2.009-1.063,1.117,0,1.756.913T108.314,162.328ZM95.134,168h3.115V156.377H95.134Zm3.3-14.631q0-.7-.467-1.149t-1.273-.451q-.795,0-1.268.451t-.473,1.149q0,.709.478,1.16t1.262.451q.784,0,1.262-.451T98.432,153.369Zm-9.571.15v2.857H86.873v2.277H88.86v5.8q0,.645-.247.924t-.945.279q-.516,0-.913-.075v2.353q.913.279,1.88.279,3.266,0,3.33-3.3v-6.263h1.7v-2.277h-1.7V153.52ZM78.408,168q.215-.419.312-1.042,1.128,1.257,2.933,1.257,1.708,0,2.831-.988t1.123-2.492q0-1.848-1.37-2.836t-3.958-1H78.849v-.666q0-.806.414-1.289t1.305-.483q.784,0,1.23.376t.446,1.031h3.1q0-1.01-.623-1.869t-1.762-1.348q-1.139-.489-2.557-.489-2.148,0-3.411,1.08t-1.262,3.035v5.038q-.011,1.654-.462,2.5V168Zm2.567-2.159q-.687,0-1.268-.306t-.859-.822v-2h1.16q2.331,0,2.481,1.611l.011.183q0,.58-.408.956T80.976,165.841ZM70.072,168h3.115V151.5H70.072Zm161.272,23.3q0,2.686,1.219,4.3t3.292,1.617q1.762,0,2.847-1.225v5.479h3.1V185.377h-2.879l-.107,1.139q-1.128-1.354-2.943-1.354-2.148,0-3.341,1.59t-1.192,4.383Zm3.1-.226q0-1.622.575-2.5t1.67-.881q1.461,0,2.009,1.117v4.759q-.569,1.149-2.03,1.149Q234.449,194.712,234.449,191.07Zm-11.559-2.782q.634-.086,1.117-.086,1.762,0,2.31,1.192V197h3.1V185.377h-2.933l-.086,1.386q-.935-1.6-2.589-1.6-.516,0-.967.14Zm-.623,2.793q0-1.729-.666-3.083t-1.917-2.095q-1.251-.741-2.906-.741-2.353,0-3.84,1.439t-1.66,3.91l-.021.795q0,2.675,1.493,4.292t4.007,1.617q2.514,0,4.012-1.611t1.5-4.383Zm-3.1.226q0,1.654-.623,2.53t-1.783.875q-1.128,0-1.762-.865t-.634-2.766q0-1.622.634-2.514t1.783-.892q1.139,0,1.762.886T219.163,191.307Zm-9.335-.2q0-2.718-1.219-4.329t-3.335-1.611q-1.7,0-2.8,1.268V180.5h-3.115V197h2.8l.15-1.235q1.16,1.45,2.986,1.45,2.052,0,3.292-1.617T209.828,191.1Zm-3.1.226q0,1.633-.569,2.5t-1.654.87q-1.439,0-2.03-1.214V188.9q.58-1.214,2.009-1.214Q206.724,187.687,206.724,191.328Zm-16.736,4.49q1.149,1.4,3.18,1.4,1.869,0,2.852-1.074t1-3.147v-7.616h-3.1v7.509q0,1.815-1.654,1.815-1.579,0-2.17-1.1v-8.229h-3.115V197H189.9ZM179.8,194.712q-.859,0-1.4-.473t-.559-1.257h-2.911q.011,1.182.645,2.165t1.735,1.525q1.1.542,2.433.542,2.492,0,3.932-1.584t1.439-4.377v-.2q0-2.686-1.429-4.286t-3.921-1.6q-2.181,0-3.5,1.241t-1.337,3.3h2.911q.021-.9.559-1.466t1.418-.564q1.085,0,1.638.79t.553,2.562v.322q0,1.794-.548,2.578T179.8,194.712ZM169.448,182.52v2.857h-1.987v2.277h1.987v5.8q0,.645-.247.924t-.945.279q-.516,0-.913-.075v2.353q.913.279,1.88.279,3.266,0,3.33-3.3v-6.263h1.7v-2.277h-1.7V182.52Zm-10.012,11.269q0-.569.564-.9t1.81-.585q4.146-.87,4.146-3.523,0-1.547-1.284-2.583t-3.357-1.037q-2.213,0-3.54,1.042t-1.327,2.707h3.1q0-.666.43-1.1t1.343-.435q.784,0,1.214.354t.43.9q0,.516-.489.833t-1.649.548q-1.16.231-1.955.521-2.46.9-2.46,3.126,0,1.59,1.364,2.573t3.523.983q1.461,0,2.594-.521t1.778-1.429q.645-.908.645-1.96h-2.943q-.043.827-.612,1.268t-1.525.44q-.892,0-1.348-.338T159.437,193.788Zm-5.822,7.133,1.622-.849-.387-.7q-.72-1.311-.741-2.61v-2.406h-2.621l.011,2.148q.011,1.192.6,2.406T153.614,200.921Zm-16.339-7.133q0-.569.564-.9t1.81-.585q4.146-.87,4.146-3.523,0-1.547-1.284-2.583t-3.357-1.037q-2.213,0-3.54,1.042t-1.327,2.707h3.1q0-.666.43-1.1t1.343-.435q.784,0,1.214.354t.43.9q0,.516-.489.833t-1.649.548q-1.16.231-1.955.521-2.46.9-2.46,3.126,0,1.59,1.364,2.573t3.523.983q1.461,0,2.594-.521t1.778-1.429q.645-.908.645-1.96h-2.943q-.043.827-.612,1.268t-1.525.44q-.892,0-1.348-.338T137.275,193.788Zm-11.978,2.03q1.149,1.4,3.18,1.4,1.869,0,2.852-1.074t1-3.147v-7.616h-3.1v7.509q0,1.815-1.654,1.815-1.579,0-2.17-1.1v-8.229H122.29V197h2.922Zm-10.184-1.106q-.859,0-1.4-.473t-.559-1.257h-2.911q.011,1.182.645,2.165t1.735,1.525q1.1.542,2.433.542,2.492,0,3.932-1.584t1.439-4.377v-.2q0-2.686-1.429-4.286t-3.921-1.6q-2.181,0-3.5,1.241t-1.337,3.3h2.911q.021-.9.559-1.466t1.418-.564q1.085,0,1.638.79t.553,2.562v.322q0,1.794-.548,2.578T115.114,194.712Zm-9.668-8.067q-1.235-1.482-3.1-1.482-3.781,0-3.835,4.394V197h3.1v-7.358q0-1,.43-1.477t1.429-.478q1.364,0,1.977,1.053V197h3.1V180.5h-3.1ZM83.951,197q.215-.419.312-1.042,1.128,1.257,2.933,1.257,1.708,0,2.831-.988t1.123-2.492q0-1.848-1.37-2.836t-3.958-1H84.392v-.666q0-.806.414-1.289t1.305-.483q.784,0,1.23.376t.446,1.031h3.1q0-1.01-.623-1.869t-1.762-1.348q-1.139-.489-2.557-.489-2.148,0-3.411,1.08t-1.262,3.035v5.038q-.011,1.654-.462,2.5V197Zm2.567-2.159q-.687,0-1.268-.306t-.859-.822v-2h1.16q2.331,0,2.481,1.611l.011.183q0,.58-.408.956T86.519,194.841ZM72.6,193.788q0-.569.564-.9t1.81-.585q4.146-.87,4.146-3.523,0-1.547-1.284-2.583t-3.357-1.037q-2.213,0-3.54,1.042t-1.327,2.707h3.1q0-.666.43-1.1t1.343-.435q.784,0,1.214.354t.43.9q0,.516-.489.833t-1.649.548q-1.16.231-1.955.521-2.46.9-2.46,3.126,0,1.59,1.364,2.573t3.523.983q1.461,0,2.594-.521t1.778-1.429q.645-.908.645-1.96H76.539q-.043.827-.612,1.268t-1.525.44q-.892,0-1.348-.338T72.6,193.788Zm159.1,27.99-1.525-7.4h-3L230.142,226h2.6l2.2-7.315,2.2,7.315h2.589l2.965-11.623h-3l-1.515,7.391-2.127-7.391h-2.245Zm-11.408,4.437q2.557,0,4.163-1.568t1.606-4.179v-.3q0-1.751-.677-3.131t-1.917-2.127q-1.241-.747-2.831-.747-2.385,0-3.754,1.5t-1.37,4.265V221.2h7.4q-.15,1.139-.908,1.826t-1.917.688q-1.794,0-2.8-1.3l-1.525,1.708q.7.988,1.891,1.542T220.291,226.215Zm.354-9.539q.924,0,1.5.623t.736,1.783h-4.318v-.247q.021-1.031.559-1.6T220.646,216.676Zm-17.37,3.62q0,2.793,1.192,4.356t3.33,1.563q1.891,0,3.019-1.45l.14,1.235h2.793V209.5h-3.1v5.919q-1.074-1.257-2.825-1.257-2.127,0-3.335,1.563t-1.208,4.4Zm3.1-.226q0-1.762.559-2.573t1.665-.811q1.482,0,2.041,1.214v4.587q-.569,1.225-2.062,1.225t-1.977-1.482Q206.38,221.521,206.38,220.07Zm-11.312,2.718q0-.569.564-.9t1.81-.585q4.146-.87,4.146-3.523,0-1.547-1.284-2.583t-3.357-1.037q-2.213,0-3.54,1.042t-1.327,2.707h3.1q0-.666.43-1.1t1.343-.435q.784,0,1.214.354t.43.9q0,.516-.489.833t-1.649.548q-1.16.231-1.955.521-2.46.9-2.46,3.126,0,1.59,1.364,2.573t3.523.983q1.461,0,2.594-.521t1.778-1.429q.645-.908.645-1.96h-2.943q-.043.827-.612,1.268t-1.525.44q-.892,0-1.348-.338T195.068,222.788ZM186.775,226h3.115V214.377h-3.115Zm3.3-14.631q0-.7-.467-1.149t-1.273-.451q-.795,0-1.268.451t-.473,1.149q0,.709.478,1.16t1.262.451q.784,0,1.262-.451T190.073,211.369Zm-9.571.15v2.857h-1.987v2.277H180.5v5.8q0,.645-.247.924t-.945.279q-.516,0-.913-.075v2.353q.913.279,1.88.279,3.266,0,3.33-3.3v-6.263h1.7v-2.277h-1.7V211.52Zm-9.066,14.7q2.557,0,4.163-1.568t1.606-4.179v-.3q0-1.751-.677-3.131t-1.917-2.127q-1.241-.747-2.831-.747-2.385,0-3.754,1.5t-1.37,4.265V221.2h7.4q-.15,1.139-.908,1.826t-1.917.688q-1.794,0-2.8-1.3L166.9,224.12q.7.988,1.891,1.542T171.436,226.215Zm.354-9.539q.924,0,1.5.623t.736,1.783h-4.318v-.247q.021-1.031.559-1.6T171.79,216.676ZM158.6,222.788q0-.569.564-.9t1.81-.585q4.146-.87,4.146-3.523,0-1.547-1.284-2.583t-3.357-1.037q-2.213,0-3.54,1.042t-1.327,2.707h3.1q0-.666.43-1.1t1.343-.435q.784,0,1.214.354t.43.9q0,.516-.489.833t-1.649.548q-1.16.231-1.955.521-2.46.9-2.46,3.126,0,1.59,1.364,2.573t3.523.983q1.461,0,2.594-.521t1.778-1.429q.645-.908.645-1.96h-2.943q-.043.827-.612,1.268t-1.525.44q-.892,0-1.348-.338T158.6,222.788Zm-5.822,7.133,1.622-.849-.387-.7q-.72-1.311-.741-2.61v-2.406h-2.621l.011,2.148q.011,1.192.6,2.406T152.776,229.921Zm-15.394-3.706q2.557,0,4.163-1.568t1.606-4.179v-.3q0-1.751-.677-3.131t-1.917-2.127q-1.241-.747-2.831-.747-2.385,0-3.754,1.5t-1.37,4.265V221.2H140q-.15,1.139-.908,1.826t-1.917.688q-1.794,0-2.8-1.3l-1.525,1.708q.7.988,1.891,1.542T137.383,226.215Zm.354-9.539q.924,0,1.5.623t.736,1.783h-4.318v-.247q.021-1.031.559-1.6T137.737,216.676ZM124.8,220.554h6.048v-2.5H124.8Zm-8.787,2.234q0-.569.564-.9t1.81-.585q4.146-.87,4.146-3.523,0-1.547-1.284-2.583t-3.357-1.037q-2.213,0-3.54,1.042t-1.327,2.707h3.1q0-.666.43-1.1t1.343-.435q.784,0,1.214.354t.43.9q0,.516-.489.833t-1.649.548q-1.16.231-1.955.521-2.46.9-2.46,3.126,0,1.59,1.364,2.573t3.523.983q1.461,0,2.594-.521t1.778-1.429q.645-.908.645-1.96h-2.943q-.043.827-.612,1.268t-1.525.44q-.892,0-1.348-.338T116.017,222.788Zm-8.046-7.144q-1.235-1.482-3.1-1.482-3.781,0-3.835,4.394V226h3.1v-7.358q0-1,.43-1.477t1.429-.478q1.364,0,1.977,1.053V226h3.1V209.5h-3.1Zm-8.8,4.437q0-1.729-.666-3.083T96.589,214.9q-1.251-.741-2.906-.741-2.353,0-3.84,1.439t-1.66,3.91l-.021.795q0,2.675,1.493,4.292t4.007,1.617q2.514,0,4.012-1.611t1.5-4.383Zm-3.1.226q0,1.654-.623,2.53t-1.783.875q-1.128,0-1.762-.865t-.634-2.766q0-1.622.634-2.514t1.783-.892q1.139,0,1.762.886T96.068,220.307ZM75.787,220.3q0,2.686,1.219,4.3t3.292,1.617q1.762,0,2.847-1.225v5.479h3.1V214.377H83.371l-.107,1.139q-1.128-1.354-2.943-1.354-2.148,0-3.341,1.59t-1.192,4.383Zm3.1-.226q0-1.622.575-2.5t1.67-.881q1.461,0,2.009,1.117v4.759q-.569,1.149-2.03,1.149Q78.892,223.712,78.892,220.07Zm-11.322,2.718q0-.569.564-.9t1.81-.585q4.146-.87,4.146-3.523,0-1.547-1.284-2.583t-3.357-1.037q-2.213,0-3.54,1.042t-1.327,2.707h3.1q0-.666.43-1.1t1.343-.435q.784,0,1.214.354t.43.9q0,.516-.489.833t-1.649.548q-1.16.231-1.955.521-2.46.9-2.46,3.126,0,1.59,1.364,2.573t3.523.983q1.461,0,2.594-.521t1.778-1.429q.645-.908.645-1.96H71.512q-.043.827-.612,1.268t-1.525.44q-.892,0-1.348-.338T67.569,222.788Zm-5.253,1.687q0-.741-.5-1.2t-1.251-.462q-.763,0-1.262.462t-.5,1.2q0,.73.494,1.187t1.268.457q.763,0,1.257-.457T62.316,224.475Zm-5.081,0q0-.741-.5-1.2t-1.251-.462q-.763,0-1.262.462t-.5,1.2q0,.73.494,1.187t1.268.457q.763,0,1.257-.457T57.235,224.475Zm-4.984,0q0-.741-.5-1.2T50.5,222.81q-.763,0-1.262.462t-.5,1.2q0,.73.494,1.187t1.268.457q.763,0,1.257-.457T52.251,224.475Z" transform="translate(25.123 28.735)" fill="#fefeff"/>
</svg>
