<svg xmlns="http://www.w3.org/2000/svg" xmlns:xlink="http://www.w3.org/1999/xlink" width="2186" height="2186" viewBox="0 0 2186 2186"><defs><linearGradient id="a" x2="1" y2="1" gradientUnits="objectBoundingBox"><stop offset="0" stop-color="#383838"/><stop offset="0.5" stop-color="#292929"/><stop offset="1" stop-color="#181818"/></linearGradient><filter id="b" x="101.6" y="897" width="1963.2" height="190" filterUnits="userSpaceOnUse"><feOffset dy="7" input="SourceAlpha"/><feGaussianBlur stdDeviation="5" result="c"/><feFlood/><feComposite operator="in" in2="c"/><feComposite in="SourceGraphic"/></filter><filter id="d" x="122.2" y="1103" width="1963.2" height="190" filterUnits="userSpaceOnUse"><feOffset dy="7" input="SourceAlpha"/><feGaussianBlur stdDeviation="5" result="e"/><feFlood/><feComposite operator="in" in2="e"/><feComposite in="SourceGraphic"/></filter><clipPath id="g"><rect width="2186" height="2186"/></clipPath></defs><g id="f" clip-path="url(#g)"><rect width="2186" height="2186" fill="url(#a)"/><g transform="matrix(1, 0, 0, 1, 0, 0)" filter="url(#b)"><path d="M98.4,20H68.6l65.2,130.2,15-30Zm201,0L249.2,120.2,213.8,49.8l-15,30L249.2,180l80-160ZM415,20c-22.2,0-41,8-56.4,23.6C343,59.2,335,78,335,100c0,22.2,8,40.8,23.6,56.4S392.8,180,415,180s40.8-8,56.4-23.6c15.8-15.4,23.8-34.2,23.8-56.4,0-22-8-40.8-23.8-56.4C455.8,28,437.2,20,415,20Zm0,26.8a51.353,51.353,0,0,1,37.6,15.6A51.353,51.353,0,0,1,468.2,100a51.343,51.343,0,0,1-15.6,37.8c-10.4,10.4-23,15.4-37.6,15.4s-27.4-5-37.8-15.4-15.4-23.2-15.4-37.8,5-27.2,15.4-37.6A51.343,51.343,0,0,1,415,46.8ZM608.6,20c-22.2,0-41,8-56.4,23.6C536.6,59.2,528.6,78,528.6,100c0,22.2,8,40.8,23.6,56.4S586.4,180,608.6,180s40.8-8,56.4-23.6c15.8-15.4,23.8-34.2,23.8-56.4,0-22-8-40.8-23.8-56.4C649.4,28,630.8,20,608.6,20Zm0,26.8a51.353,51.353,0,0,1,37.6,15.6A51.353,51.353,0,0,1,661.8,100a51.343,51.343,0,0,1-15.6,37.8c-10.4,10.4-23,15.4-37.6,15.4s-27.4-5-37.8-15.4-15.4-23.2-15.4-37.8,5-27.2,15.4-37.6A51.343,51.343,0,0,1,608.6,46.8ZM790.8,173.6a79.421,79.421,0,0,0,62,.2l-31-20.6a55.8,55.8,0,0,1-20.8-4,51.6,51.6,0,0,1-16.8-11.6,51.6,51.6,0,0,1-11.6-16.8,53.6,53.6,0,0,1,0-41.6A54.286,54.286,0,0,1,784,62.4a50.384,50.384,0,0,1,17-11.6,55.036,55.036,0,0,1,20.8-4,51.809,51.809,0,0,1,37.6,15.4l19-18.6a82.972,82.972,0,0,0-25.6-17.4,79.421,79.421,0,0,0-62,.2,80.121,80.121,0,0,0-25.6,17.2A81.713,81.713,0,0,0,748,68.8a78.446,78.446,0,0,0-6.4,31.2,77.244,77.244,0,0,0,6.4,30.8,80.071,80.071,0,0,0,42.8,42.8ZM985.6,20c-22.2,0-41,8-56.4,23.6C913.6,59.2,905.6,78,905.6,100c0,22.2,8,40.8,23.6,56.4S963.4,180,985.6,180s40.8-8,56.4-23.6c15.8-15.4,23.8-34.2,23.8-56.4,0-22-8-40.8-23.8-56.4C1026.4,28,1007.8,20,985.6,20Zm0,26.8a51.353,51.353,0,0,1,37.6,15.6,51.353,51.353,0,0,1,15.6,37.6,51.343,51.343,0,0,1-15.6,37.8c-10.4,10.4-23,15.4-37.6,15.4s-27.4-5-37.8-15.4-15.4-23.2-15.4-37.8,5-27.2,15.4-37.6A51.343,51.343,0,0,1,985.6,46.8ZM1083,57.2l80.2,80.6,53.6-53.4V180h26.4V20l-80,80L1083,20Zm189.6,0,80.2,80.6,53.6-53.4V180h26.4V20l-80,80-80.2-80Zm189.6,120.6V180h106.6V153.2h-80Zm0-157.8,26.6,26.8h80V20Zm0,66.8v26.6h106.6V86.8H1462.2Zm238,16.6a50.563,50.563,0,0,0,9.4-30.2c0-14.6-5.2-27-15.6-37.6A51.353,51.353,0,0,0,1656.4,20h-70.2L1600,43.8l3,3h53.4a25.393,25.393,0,0,1,18.6,7.8,24.838,24.838,0,0,1,8,18.6,25.391,25.391,0,0,1-8,19,25.393,25.393,0,0,1-18.6,7.8l-23.8-.2L1679,180h30.6l-32.8-57.4A51.6,51.6,0,0,0,1700.2,103.4Zm107.4,70.2a79.421,79.421,0,0,0,62,.2l-31-20.6a55.8,55.8,0,0,1-20.8-4,51.6,51.6,0,0,1-16.8-11.6,51.6,51.6,0,0,1-11.6-16.8,53.605,53.605,0,0,1,0-41.6,54.287,54.287,0,0,1,11.4-16.8,50.384,50.384,0,0,1,17-11.6,55.036,55.036,0,0,1,20.8-4,51.809,51.809,0,0,1,37.6,15.4l19-18.6a82.971,82.971,0,0,0-25.6-17.4,79.421,79.421,0,0,0-62,.2A80.122,80.122,0,0,0,1782,43.6a81.713,81.713,0,0,0-17.2,25.2,78.445,78.445,0,0,0-6.4,31.2,77.243,77.243,0,0,0,6.4,30.8,80.071,80.071,0,0,0,42.8,42.8Zm87.6,4.2V180h106.6V153.2h-80Zm0-157.8,26.6,26.8h80V20Zm0,66.8v26.6h106.6V86.8H1895.2Z" transform="translate(48 885)" fill="#fff"/></g><g transform="matrix(1, 0, 0, 1, 0, 0)" filter="url(#d)"><path d="M98.4,20H68.6l65.2,130.2,15-30Zm201,0L249.2,120.2,213.8,49.8l-15,30L249.2,180l80-160ZM415,20c-22.2,0-41,8-56.4,23.6C343,59.2,335,78,335,100c0,22.2,8,40.8,23.6,56.4S392.8,180,415,180s40.8-8,56.4-23.6c15.8-15.4,23.8-34.2,23.8-56.4,0-22-8-40.8-23.8-56.4C455.8,28,437.2,20,415,20Zm0,26.8a51.353,51.353,0,0,1,37.6,15.6A51.353,51.353,0,0,1,468.2,100a51.343,51.343,0,0,1-15.6,37.8c-10.4,10.4-23,15.4-37.6,15.4s-27.4-5-37.8-15.4-15.4-23.2-15.4-37.8,5-27.2,15.4-37.6A51.343,51.343,0,0,1,415,46.8ZM608.6,20c-22.2,0-41,8-56.4,23.6C536.6,59.2,528.6,78,528.6,100c0,22.2,8,40.8,23.6,56.4S586.4,180,608.6,180s40.8-8,56.4-23.6c15.8-15.4,23.8-34.2,23.8-56.4,0-22-8-40.8-23.8-56.4C649.4,28,630.8,20,608.6,20Zm0,26.8a51.353,51.353,0,0,1,37.6,15.6A51.353,51.353,0,0,1,661.8,100a51.343,51.343,0,0,1-15.6,37.8c-10.4,10.4-23,15.4-37.6,15.4s-27.4-5-37.8-15.4-15.4-23.2-15.4-37.8,5-27.2,15.4-37.6A51.343,51.343,0,0,1,608.6,46.8ZM790.8,173.6a79.421,79.421,0,0,0,62,.2l-31-20.6a55.8,55.8,0,0,1-20.8-4,51.6,51.6,0,0,1-16.8-11.6,51.6,51.6,0,0,1-11.6-16.8,53.6,53.6,0,0,1,0-41.6A54.286,54.286,0,0,1,784,62.4a50.384,50.384,0,0,1,17-11.6,55.036,55.036,0,0,1,20.8-4,51.809,51.809,0,0,1,37.6,15.4l19-18.6a82.972,82.972,0,0,0-25.6-17.4,79.421,79.421,0,0,0-62,.2,80.121,80.121,0,0,0-25.6,17.2A81.713,81.713,0,0,0,748,68.8a78.446,78.446,0,0,0-6.4,31.2,77.244,77.244,0,0,0,6.4,30.8,80.071,80.071,0,0,0,42.8,42.8ZM985.6,20c-22.2,0-41,8-56.4,23.6C913.6,59.2,905.6,78,905.6,100c0,22.2,8,40.8,23.6,56.4S963.4,180,985.6,180s40.8-8,56.4-23.6c15.8-15.4,23.8-34.2,23.8-56.4,0-22-8-40.8-23.8-56.4C1026.4,28,1007.8,20,985.6,20Zm0,26.8a51.353,51.353,0,0,1,37.6,15.6,51.353,51.353,0,0,1,15.6,37.6,51.343,51.343,0,0,1-15.6,37.8c-10.4,10.4-23,15.4-37.6,15.4s-27.4-5-37.8-15.4-15.4-23.2-15.4-37.8,5-27.2,15.4-37.6A51.343,51.343,0,0,1,985.6,46.8ZM1083,57.2l80.2,80.6,53.6-53.4V180h26.4V20l-80,80L1083,20Zm189.6,0,80.2,80.6,53.6-53.4V180h26.4V20l-80,80-80.2-80Zm189.6,120.6V180h106.6V153.2h-80Zm0-157.8,26.6,26.8h80V20Zm0,66.8v26.6h106.6V86.8H1462.2Zm238,16.6a50.563,50.563,0,0,0,9.4-30.2c0-14.6-5.2-27-15.6-37.6A51.353,51.353,0,0,0,1656.4,20h-70.2L1600,43.8l3,3h53.4a25.393,25.393,0,0,1,18.6,7.8,24.838,24.838,0,0,1,8,18.6,25.391,25.391,0,0,1-8,19,25.393,25.393,0,0,1-18.6,7.8l-23.8-.2L1679,180h30.6l-32.8-57.4A51.6,51.6,0,0,0,1700.2,103.4Zm107.4,70.2a79.421,79.421,0,0,0,62,.2l-31-20.6a55.8,55.8,0,0,1-20.8-4,51.6,51.6,0,0,1-16.8-11.6,51.6,51.6,0,0,1-11.6-16.8,53.605,53.605,0,0,1,0-41.6,54.287,54.287,0,0,1,11.4-16.8,50.384,50.384,0,0,1,17-11.6,55.036,55.036,0,0,1,20.8-4,51.809,51.809,0,0,1,37.6,15.4l19-18.6a82.971,82.971,0,0,0-25.6-17.4,79.421,79.421,0,0,0-62,.2A80.122,80.122,0,0,0,1782,43.6a81.713,81.713,0,0,0-17.2,25.2,78.445,78.445,0,0,0-6.4,31.2,77.243,77.243,0,0,0,6.4,30.8,80.071,80.071,0,0,0,42.8,42.8Zm87.6,4.2V180h106.6V153.2h-80Zm0-157.8,26.6,26.8h80V20Zm0,66.8v26.6h106.6V86.8H1895.2Z" transform="translate(2139 1291) rotate(180)" fill="#fff"/></g></g></svg>