<svg xmlns="http://www.w3.org/2000/svg" xmlns:xlink="http://www.w3.org/1999/xlink" width="2186" height="2186" viewBox="0 0 2186 2186"><defs><linearGradient id="a" x2="1" y2="1" gradientUnits="objectBoundingBox"><stop offset="0" stop-color="#383838"/><stop offset="0.5" stop-color="#292929"/><stop offset="1" stop-color="#181818"/></linearGradient><filter id="b" x="122.2" y="897" width="1963.2" height="190" filterUnits="userSpaceOnUse"><feOffset dy="7" input="SourceAlpha"/><feGaussianBlur stdDeviation="5" result="c"/><feFlood/><feComposite operator="in" in2="c"/><feComposite in="SourceGraphic"/></filter><filter id="d" x="101.6" y="1103" width="1963.2" height="190" filterUnits="userSpaceOnUse"><feOffset dy="7" input="SourceAlpha"/><feGaussianBlur stdDeviation="5" result="e"/><feFlood/><feComposite operator="in" in2="e"/><feComposite in="SourceGraphic"/></filter><clipPath id="g"><rect width="2186" height="2186"/></clipPath></defs><g id="f" clip-path="url(#g)"><rect width="2186" height="2186" fill="url(#a)"/><g transform="translate(101.6 897)"><g transform="matrix(1, 0, 0, 1, -101.6, -897)" filter="url(#b)"><path d="M1918.4,8h29.8L1883,138.2l-15-30Zm-201,0,50.2,100.2L1803,37.8l15,30L1767.6,168l-80-160ZM1601.8,8a83.959,83.959,0,0,1,16.012,1.494,74.089,74.089,0,0,1,28.2,11.838A84.4,84.4,0,0,1,1658.2,31.6a86.573,86.573,0,0,1,10.269,12.3,75.932,75.932,0,0,1,7.381,13.5,74.75,74.75,0,0,1,4.456,14.7,85.817,85.817,0,0,1,0,31.884,74.217,74.217,0,0,1-4.456,14.691,75.432,75.432,0,0,1-7.381,13.453,90.389,90.389,0,0,1-22.541,22.541,75.432,75.432,0,0,1-13.453,7.381,74.207,74.207,0,0,1-14.691,4.456,86.27,86.27,0,0,1-31.969,0,74.207,74.207,0,0,1-14.691-4.456,75.432,75.432,0,0,1-13.453-7.381A87.251,87.251,0,0,1,1545.4,144.4a83.941,83.941,0,0,1-10.384-12.187,73.463,73.463,0,0,1-11.919-28.2A83.71,83.71,0,0,1,1521.6,88a82.723,82.723,0,0,1,1.5-15.9,74.158,74.158,0,0,1,4.478-14.7,75.257,75.257,0,0,1,7.441-13.5A86.076,86.076,0,0,1,1545.4,31.6a87.25,87.25,0,0,1,12.272-10.269,75.433,75.433,0,0,1,13.453-7.381,74.206,74.206,0,0,1,14.691-4.456A83.544,83.544,0,0,1,1601.8,8Zm0,26.8a56.151,56.151,0,0,0-10.572.975,49.86,49.86,0,0,0-18.819,7.8,58.213,58.213,0,0,0-15.034,15.034,49.858,49.858,0,0,0-7.8,18.819A56.149,56.149,0,0,0,1548.6,88a57.563,57.563,0,0,0,.947,10.575,49.647,49.647,0,0,0,7.744,18.9,56.571,56.571,0,0,0,6.909,8.325,55.1,55.1,0,0,0,8.209,6.794,49.55,49.55,0,0,0,9.016,4.806,50.451,50.451,0,0,0,9.8,2.856,59.86,59.86,0,0,0,21.175,0,51.24,51.24,0,0,0,9.872-2.856,49.917,49.917,0,0,0,9.084-4.806,55.746,55.746,0,0,0,15.034-15.034,49.916,49.916,0,0,0,4.806-9.084,51.23,51.23,0,0,0,2.856-9.872,59.861,59.861,0,0,0,0-21.175,50.439,50.439,0,0,0-2.856-9.8,49.549,49.549,0,0,0-4.806-9.016A55.091,55.091,0,0,0,1639.6,50.4a56.566,56.566,0,0,0-8.325-6.909,49.647,49.647,0,0,0-18.9-7.744A57.554,57.554,0,0,0,1601.8,34.8ZM1408.2,8a83.96,83.96,0,0,1,16.013,1.494,74.089,74.089,0,0,1,28.2,11.838A84.406,84.406,0,0,1,1464.6,31.6a86.58,86.58,0,0,1,10.269,12.3,75.931,75.931,0,0,1,7.381,13.5,74.742,74.742,0,0,1,4.456,14.7,85.824,85.824,0,0,1,0,31.884,74.209,74.209,0,0,1-4.456,14.691,75.431,75.431,0,0,1-7.381,13.453,90.381,90.381,0,0,1-22.541,22.541,75.432,75.432,0,0,1-13.453,7.381,74.207,74.207,0,0,1-14.691,4.456,86.27,86.27,0,0,1-31.969,0,74.206,74.206,0,0,1-14.691-4.456,75.428,75.428,0,0,1-13.453-7.381A87.258,87.258,0,0,1,1351.8,144.4a83.949,83.949,0,0,1-10.384-12.187,73.461,73.461,0,0,1-11.919-28.2A83.71,83.71,0,0,1,1328,88a82.723,82.723,0,0,1,1.5-15.9,74.174,74.174,0,0,1,4.478-14.7,75.265,75.265,0,0,1,7.441-13.5A86.084,86.084,0,0,1,1351.8,31.6a87.257,87.257,0,0,1,12.272-10.269,75.428,75.428,0,0,1,13.453-7.381,74.2,74.2,0,0,1,14.691-4.456A83.545,83.545,0,0,1,1408.2,8Zm0,26.8a56.151,56.151,0,0,0-10.572.975,49.86,49.86,0,0,0-18.819,7.8,58.218,58.218,0,0,0-15.034,15.034,49.861,49.861,0,0,0-7.8,18.819A56.149,56.149,0,0,0,1355,88a57.553,57.553,0,0,0,.947,10.575,49.642,49.642,0,0,0,7.744,18.9,56.565,56.565,0,0,0,6.909,8.325,55.082,55.082,0,0,0,8.209,6.794,49.546,49.546,0,0,0,9.016,4.806,50.449,50.449,0,0,0,9.8,2.856,59.86,59.86,0,0,0,21.175,0,51.245,51.245,0,0,0,9.872-2.856,49.917,49.917,0,0,0,9.084-4.806,55.743,55.743,0,0,0,15.034-15.034,49.91,49.91,0,0,0,4.806-9.084,51.256,51.256,0,0,0,2.856-9.872,59.861,59.861,0,0,0,0-21.175,50.464,50.464,0,0,0-2.856-9.8,49.543,49.543,0,0,0-4.806-9.016A55.082,55.082,0,0,0,1446,50.4a56.572,56.572,0,0,0-8.325-6.909,49.647,49.647,0,0,0-18.9-7.744A57.555,57.555,0,0,0,1408.2,34.8ZM1226,161.6a75.723,75.723,0,0,1-14.975,4.775,77.206,77.206,0,0,1-7.891,1.216A80.325,80.325,0,0,1,1195,168q-4.125,0-8.134-.378a78.888,78.888,0,0,1-7.891-1.147,73.842,73.842,0,0,1-7.628-1.934A71.071,71.071,0,0,1,1164,161.8l31-20.6q2.775,0,5.444-.259t5.256-.766q2.588-.506,5.106-1.253t4.994-1.722q2.4-1.05,4.65-2.291t4.35-2.684a50.212,50.212,0,0,0,7.8-6.625,50.208,50.208,0,0,0,6.625-7.8q1.444-2.1,2.684-4.35t2.291-4.65q1.05-2.475,1.838-4.994a51.454,51.454,0,0,0,2.1-10.363q.263-2.672.263-5.444t-.263-5.444a51.454,51.454,0,0,0-2.1-10.363q-.788-2.522-1.838-4.994-1.05-2.4-2.287-4.65t-2.663-4.35q-1.425-2.1-3.037-4.05T1232.8,50.4a49.839,49.839,0,0,0-3.753-3.528,49,49,0,0,0-4.072-3.1,50.841,50.841,0,0,0-4.409-2.684q-2.292-1.242-4.766-2.291-2.4-.975-4.909-1.722t-5.116-1.253q-2.606-.506-5.3-.766T1195,34.8a56.743,56.743,0,0,0-10.459.944,50.266,50.266,0,0,0-18.819,7.663A57.17,57.17,0,0,0,1157.4,50.2l-19-18.6q2.775-2.775,5.772-5.25t6.2-4.65q3.206-2.175,6.616-4.05T1164,14.2a71.072,71.072,0,0,1,7.347-2.741,73.837,73.837,0,0,1,7.628-1.934,78.887,78.887,0,0,1,7.891-1.147Q1190.873,8,1195,8a80.322,80.322,0,0,1,8.134.409,77.206,77.206,0,0,1,7.891,1.216A75.726,75.726,0,0,1,1226,14.4q3.675,1.575,7.094,3.419T1239.7,21.8q3.188,2.137,6.156,4.581T1251.6,31.6q2.7,2.7,5.134,5.625t4.591,6.075q2.156,3.15,4.028,6.525T1268.8,56.8q1.575,3.675,2.772,7.462a77.881,77.881,0,0,1,3.219,15.6A80.437,80.437,0,0,1,1275.2,88a77.6,77.6,0,0,1-.409,7.991,75.93,75.93,0,0,1-1.216,7.784,77.409,77.409,0,0,1-2,7.6q-1.2,3.755-2.772,7.428t-3.447,7.094q-1.87,3.422-4.028,6.606t-4.591,6.156q-2.433,2.972-5.134,5.744-2.775,2.7-5.744,5.134t-6.156,4.591q-3.187,2.156-6.606,4.028T1226,161.6ZM1031.2,8a83.96,83.96,0,0,1,16.013,1.494,74.089,74.089,0,0,1,28.2,11.838A84.406,84.406,0,0,1,1087.6,31.6a86.58,86.58,0,0,1,10.269,12.3,75.931,75.931,0,0,1,7.381,13.5,74.742,74.742,0,0,1,4.456,14.7,85.824,85.824,0,0,1,0,31.884,74.209,74.209,0,0,1-4.456,14.691,75.431,75.431,0,0,1-7.381,13.453,90.381,90.381,0,0,1-22.541,22.541,75.432,75.432,0,0,1-13.453,7.381,74.207,74.207,0,0,1-14.691,4.456,86.27,86.27,0,0,1-31.969,0,74.207,74.207,0,0,1-14.691-4.456,75.428,75.428,0,0,1-13.453-7.381A87.258,87.258,0,0,1,974.8,144.4a83.949,83.949,0,0,1-10.384-12.187,73.461,73.461,0,0,1-11.919-28.2A83.71,83.71,0,0,1,951,88a82.723,82.723,0,0,1,1.5-15.9,74.174,74.174,0,0,1,4.478-14.7,75.25,75.25,0,0,1,7.441-13.5A86.084,86.084,0,0,1,974.8,31.6a87.257,87.257,0,0,1,12.272-10.269,75.428,75.428,0,0,1,13.453-7.381,74.205,74.205,0,0,1,14.691-4.456A83.544,83.544,0,0,1,1031.2,8Zm0,26.8a56.151,56.151,0,0,0-10.572.975,49.86,49.86,0,0,0-18.819,7.8,58.218,58.218,0,0,0-15.035,15.034,49.864,49.864,0,0,0-7.8,18.819A56.149,56.149,0,0,0,978,88a57.553,57.553,0,0,0,.947,10.575,49.642,49.642,0,0,0,7.744,18.9A56.576,56.576,0,0,0,993.6,125.8a55.089,55.089,0,0,0,8.209,6.794,49.548,49.548,0,0,0,9.016,4.806,50.45,50.45,0,0,0,9.8,2.856,59.86,59.86,0,0,0,21.175,0,51.245,51.245,0,0,0,9.872-2.856,49.917,49.917,0,0,0,9.084-4.806,55.743,55.743,0,0,0,15.034-15.034,49.91,49.91,0,0,0,4.806-9.084,51.256,51.256,0,0,0,2.856-9.872,59.861,59.861,0,0,0,0-21.175,50.464,50.464,0,0,0-2.856-9.8,49.543,49.543,0,0,0-4.806-9.016A55.082,55.082,0,0,0,1069,50.4a56.572,56.572,0,0,0-8.325-6.909,49.647,49.647,0,0,0-18.9-7.744A57.555,57.555,0,0,0,1031.2,34.8ZM933.8,45.2l-80.2,80.6L800,72.4V168H773.6V8l80,80L933.8,8Zm-189.6,0L664,125.8,610.4,72.4V168H584V8l80,80L744.2,8ZM554.6,165.8V168H448V141.2h80ZM554.6,8,528,34.8H448V8Zm0,66.8v26.6H448V74.8H554.6Zm-238,16.6a51.5,51.5,0,0,1-4.169-6.941,48.768,48.768,0,0,1-2.931-7.334,50.718,50.718,0,0,1-1.731-7.747A57.434,57.434,0,0,1,307.2,61.2a55.739,55.739,0,0,1,.975-10.544A49.8,49.8,0,0,1,311.1,40.9a50.971,50.971,0,0,1,4.875-9.006A59.371,59.371,0,0,1,322.8,23.6a56.512,56.512,0,0,1,8.209-6.825,49.861,49.861,0,0,1,18.819-7.8A56.151,56.151,0,0,1,360.4,8h70.2L416.8,31.8l-3,3H360.4a27.313,27.313,0,0,0-5.213.487,24.582,24.582,0,0,0-4.837,1.463,25.029,25.029,0,0,0-4.462,2.438A28.73,28.73,0,0,0,341.8,42.6a28.289,28.289,0,0,0-3.528,4.087,24.387,24.387,0,0,0-2.5,4.463,24.013,24.013,0,0,0-1.484,4.838A27.06,27.06,0,0,0,333.8,61.2a28.585,28.585,0,0,0,.491,5.359,25.011,25.011,0,0,0,1.484,4.966,24.6,24.6,0,0,0,2.5,4.553A27.4,27.4,0,0,0,341.8,80.2a28.73,28.73,0,0,0,4.088,3.413,25.029,25.029,0,0,0,4.462,2.438,24.582,24.582,0,0,0,4.837,1.462A27.312,27.312,0,0,0,360.4,88l23.8-.2L337.8,168H307.2L340,110.6a49.413,49.413,0,0,1-12.9-7.65,52.547,52.547,0,0,1-5.55-5.287A59.322,59.322,0,0,1,316.6,91.4ZM209.2,161.6a75.721,75.721,0,0,1-14.975,4.775,77.2,77.2,0,0,1-7.891,1.216A80.325,80.325,0,0,1,178.2,168q-4.125,0-8.134-.378a78.881,78.881,0,0,1-7.891-1.147,73.844,73.844,0,0,1-7.628-1.934A71.081,71.081,0,0,1,147.2,161.8l31-20.6q2.775,0,5.444-.259t5.256-.766q2.587-.506,5.106-1.253T199,137.2q2.4-1.05,4.65-2.291t4.35-2.684a50.219,50.219,0,0,0,7.8-6.625,50.208,50.208,0,0,0,6.625-7.8q1.444-2.1,2.684-4.35t2.291-4.65q1.05-2.475,1.838-4.994A51.385,51.385,0,0,0,230.55,98.7a51.926,51.926,0,0,0,.788-5.256q.262-2.672.262-5.444t-.262-5.444a51.926,51.926,0,0,0-.788-5.256,51.385,51.385,0,0,0-1.312-5.106q-.788-2.522-1.838-4.994-1.05-2.4-2.288-4.65T222.45,58.2q-1.425-2.1-3.038-4.05T216,50.4a49.839,49.839,0,0,0-3.753-3.528,48.983,48.983,0,0,0-4.072-3.1,50.8,50.8,0,0,0-4.409-2.684Q201.473,39.848,199,38.8q-2.4-.975-4.909-1.722t-5.116-1.253q-2.606-.506-5.3-.766T178.2,34.8a56.74,56.74,0,0,0-10.459.944,50.268,50.268,0,0,0-18.819,7.663A57.177,57.177,0,0,0,140.6,50.2l-19-18.6q2.775-2.775,5.772-5.25t6.2-4.65q3.206-2.175,6.616-4.05T147.2,14.2a71.083,71.083,0,0,1,7.347-2.741,73.84,73.84,0,0,1,7.628-1.934,78.88,78.88,0,0,1,7.891-1.147Q174.073,8,178.2,8a80.322,80.322,0,0,1,8.134.409,77.2,77.2,0,0,1,7.891,1.216A75.723,75.723,0,0,1,209.2,14.4q3.675,1.575,7.094,3.419T222.9,21.8q3.188,2.137,6.156,4.581T234.8,31.6q2.7,2.7,5.134,5.625t4.591,6.075q2.156,3.15,4.028,6.525T252,56.8q1.575,3.675,2.772,7.462a77.858,77.858,0,0,1,3.219,15.6A80.4,80.4,0,0,1,258.4,88a77.564,77.564,0,0,1-.409,7.991,75.963,75.963,0,0,1-1.216,7.784,77.41,77.41,0,0,1-2,7.6q-1.2,3.755-2.772,7.428t-3.447,7.094q-1.87,3.422-4.028,6.606t-4.591,6.156q-2.433,2.972-5.134,5.744-2.775,2.7-5.744,5.134t-6.156,4.591q-3.187,2.156-6.606,4.028T209.2,161.6Zm-87.6,4.2V168H15V141.2H95ZM121.6,8,95,34.8H15V8Zm0,66.8v26.6H15V74.8H121.6Z" transform="translate(122.2 897)" fill="#fff"/></g><g transform="matrix(1, 0, 0, 1, -101.6, -897)" filter="url(#d)"><path d="M44.8,168H15L80.2,37.8l15,30Zm201,0L195.6,67.8l-35.4,70.4-15-30L195.6,8l80,160Zm115.6,0a83.96,83.96,0,0,1-16.013-1.494,74.09,74.09,0,0,1-28.2-11.838A84.4,84.4,0,0,1,305,144.4a86.576,86.576,0,0,1-10.269-12.3,75.932,75.932,0,0,1-7.381-13.5,74.742,74.742,0,0,1-4.456-14.7,85.819,85.819,0,0,1,0-31.884,74.209,74.209,0,0,1,4.456-14.691,75.431,75.431,0,0,1,7.381-13.453,90.386,90.386,0,0,1,22.541-22.541,75.43,75.43,0,0,1,13.453-7.381,74.207,74.207,0,0,1,14.691-4.456,86.27,86.27,0,0,1,31.969,0,74.207,74.207,0,0,1,14.691,4.456,75.431,75.431,0,0,1,13.453,7.381A87.251,87.251,0,0,1,417.8,31.6a83.941,83.941,0,0,1,10.384,12.187,73.462,73.462,0,0,1,11.919,28.2A83.7,83.7,0,0,1,441.6,88a82.718,82.718,0,0,1-1.5,15.9,74.162,74.162,0,0,1-4.478,14.7,75.259,75.259,0,0,1-7.441,13.5A86.076,86.076,0,0,1,417.8,144.4a87.25,87.25,0,0,1-12.272,10.269,75.432,75.432,0,0,1-13.453,7.381,74.207,74.207,0,0,1-14.691,4.456A83.544,83.544,0,0,1,361.4,168Zm0-26.8a56.152,56.152,0,0,0,10.572-.975,49.86,49.86,0,0,0,18.819-7.8,58.215,58.215,0,0,0,15.034-15.034,49.859,49.859,0,0,0,7.8-18.819A56.151,56.151,0,0,0,414.6,88a57.555,57.555,0,0,0-.947-10.575,49.646,49.646,0,0,0-7.744-18.9A56.566,56.566,0,0,0,399,50.2a55.087,55.087,0,0,0-8.209-6.794,49.549,49.549,0,0,0-9.016-4.806,50.451,50.451,0,0,0-9.8-2.856,59.861,59.861,0,0,0-21.175,0,51.242,51.242,0,0,0-9.872,2.856,49.915,49.915,0,0,0-9.084,4.806,55.744,55.744,0,0,0-15.034,15.034A49.917,49.917,0,0,0,312,67.525a51.239,51.239,0,0,0-2.856,9.872,59.86,59.86,0,0,0,0,21.175,50.447,50.447,0,0,0,2.856,9.8,49.55,49.55,0,0,0,4.806,9.016A55.086,55.086,0,0,0,323.6,125.6a56.566,56.566,0,0,0,8.325,6.909,49.645,49.645,0,0,0,18.9,7.744A57.554,57.554,0,0,0,361.4,141.2ZM555,168a83.96,83.96,0,0,1-16.013-1.494,74.089,74.089,0,0,1-28.2-11.838A84.4,84.4,0,0,1,498.6,144.4a86.576,86.576,0,0,1-10.269-12.3,75.932,75.932,0,0,1-7.381-13.5,74.742,74.742,0,0,1-4.456-14.7,85.821,85.821,0,0,1,0-31.884,74.209,74.209,0,0,1,4.456-14.691,75.431,75.431,0,0,1,7.381-13.453,90.384,90.384,0,0,1,22.541-22.541,75.43,75.43,0,0,1,13.453-7.381,74.207,74.207,0,0,1,14.691-4.456,86.27,86.27,0,0,1,31.969,0,74.207,74.207,0,0,1,14.691,4.456,75.43,75.43,0,0,1,13.453,7.381A87.254,87.254,0,0,1,611.4,31.6a83.945,83.945,0,0,1,10.384,12.187,73.46,73.46,0,0,1,11.919,28.2A83.7,83.7,0,0,1,635.2,88a82.718,82.718,0,0,1-1.5,15.9,74.166,74.166,0,0,1-4.478,14.7,75.262,75.262,0,0,1-7.441,13.5A86.08,86.08,0,0,1,611.4,144.4a87.253,87.253,0,0,1-12.272,10.269,75.431,75.431,0,0,1-13.453,7.381,74.207,74.207,0,0,1-14.691,4.456A83.545,83.545,0,0,1,555,168Zm0-26.8a56.151,56.151,0,0,0,10.572-.975,49.861,49.861,0,0,0,18.819-7.8,58.215,58.215,0,0,0,15.034-15.034,49.861,49.861,0,0,0,7.8-18.819A56.154,56.154,0,0,0,608.2,88a57.553,57.553,0,0,0-.947-10.575,49.645,49.645,0,0,0-7.744-18.9A56.568,56.568,0,0,0,592.6,50.2a55.089,55.089,0,0,0-8.209-6.794,49.548,49.548,0,0,0-9.016-4.806,50.45,50.45,0,0,0-9.8-2.856,59.86,59.86,0,0,0-21.175,0,51.243,51.243,0,0,0-9.872,2.856,49.916,49.916,0,0,0-9.084,4.806,55.745,55.745,0,0,0-15.034,15.034,49.913,49.913,0,0,0-4.806,9.084,51.247,51.247,0,0,0-2.856,9.872,59.861,59.861,0,0,0,0,21.175,50.456,50.456,0,0,0,2.856,9.8,49.546,49.546,0,0,0,4.806,9.016A55.09,55.09,0,0,0,517.2,125.6a56.569,56.569,0,0,0,8.325,6.909,49.646,49.646,0,0,0,18.9,7.744A57.555,57.555,0,0,0,555,141.2ZM737.2,14.4a75.72,75.72,0,0,1,14.975-4.775,77.206,77.206,0,0,1,7.891-1.216A80.325,80.325,0,0,1,768.2,8q4.125,0,8.134.378a78.888,78.888,0,0,1,7.891,1.147,73.847,73.847,0,0,1,7.628,1.934A71.075,71.075,0,0,1,799.2,14.2l-31,20.6q-2.775,0-5.444.259t-5.256.766q-2.588.506-5.106,1.253T747.4,38.8q-2.4,1.05-4.65,2.291t-4.35,2.684a50.2,50.2,0,0,0-7.8,6.625,50.2,50.2,0,0,0-6.625,7.8q-1.444,2.1-2.684,4.35T719,67.2q-1.05,2.475-1.837,4.994A51.4,51.4,0,0,0,715.85,77.3a51.926,51.926,0,0,0-.787,5.256Q714.8,85.228,714.8,88t.263,5.444a51.926,51.926,0,0,0,.787,5.256,51.4,51.4,0,0,0,1.313,5.106q.787,2.522,1.837,4.994,1.05,2.4,2.287,4.65t2.663,4.35q1.425,2.1,3.037,4.05t3.413,3.75a49.828,49.828,0,0,0,3.753,3.528,48.989,48.989,0,0,0,4.072,3.1,50.825,50.825,0,0,0,4.409,2.684q2.292,1.242,4.766,2.291,2.4.975,4.909,1.722t5.116,1.253q2.606.506,5.3.766t5.472.259a56.743,56.743,0,0,0,10.459-.944,50.267,50.267,0,0,0,18.819-7.663A57.174,57.174,0,0,0,805.8,125.8l19,18.6q-2.775,2.775-5.772,5.25t-6.2,4.65q-3.206,2.175-6.616,4.05T799.2,161.8a71.075,71.075,0,0,1-7.347,2.741,73.843,73.843,0,0,1-7.628,1.934,78.888,78.888,0,0,1-7.891,1.147q-4.008.38-8.134.378a80.321,80.321,0,0,1-8.134-.409,77.206,77.206,0,0,1-7.891-1.216A75.723,75.723,0,0,1,737.2,161.6q-3.675-1.575-7.094-3.419T723.5,154.2q-3.187-2.138-6.156-4.581T711.6,144.4q-2.7-2.7-5.134-5.625t-4.591-6.075q-2.156-3.15-4.028-6.525T694.4,119.2q-1.575-3.675-2.772-7.462a77.87,77.87,0,0,1-3.219-15.6A80.437,80.437,0,0,1,688,88a77.6,77.6,0,0,1,.409-7.991,75.946,75.946,0,0,1,1.216-7.784,77.426,77.426,0,0,1,2-7.6q1.2-3.755,2.772-7.428t3.447-7.094q1.87-3.422,4.028-6.606t4.591-6.156Q708.9,34.372,711.6,31.6q2.775-2.7,5.744-5.134t6.156-4.591q3.188-2.156,6.606-4.028T737.2,14.4ZM932,168a83.96,83.96,0,0,1-16.013-1.494,74.089,74.089,0,0,1-28.2-11.838A84.4,84.4,0,0,1,875.6,144.4a86.576,86.576,0,0,1-10.269-12.3,75.932,75.932,0,0,1-7.381-13.5,74.742,74.742,0,0,1-4.456-14.7,85.821,85.821,0,0,1,0-31.884,74.209,74.209,0,0,1,4.456-14.691,75.431,75.431,0,0,1,7.381-13.453,90.384,90.384,0,0,1,22.541-22.541,75.43,75.43,0,0,1,13.453-7.381,74.207,74.207,0,0,1,14.691-4.456,86.27,86.27,0,0,1,31.969,0,74.207,74.207,0,0,1,14.691,4.456,75.428,75.428,0,0,1,13.453,7.381A87.258,87.258,0,0,1,988.4,31.6a83.949,83.949,0,0,1,10.384,12.187,73.461,73.461,0,0,1,11.919,28.2A83.71,83.71,0,0,1,1012.2,88a82.723,82.723,0,0,1-1.5,15.9,74.174,74.174,0,0,1-4.478,14.7,75.25,75.25,0,0,1-7.441,13.5A86.084,86.084,0,0,1,988.4,144.4a87.257,87.257,0,0,1-12.272,10.269,75.429,75.429,0,0,1-13.453,7.381,74.207,74.207,0,0,1-14.691,4.456A83.545,83.545,0,0,1,932,168Zm0-26.8a56.151,56.151,0,0,0,10.572-.975,49.861,49.861,0,0,0,18.819-7.8,58.218,58.218,0,0,0,15.035-15.034,49.864,49.864,0,0,0,7.8-18.819A56.149,56.149,0,0,0,985.2,88a57.553,57.553,0,0,0-.947-10.575,49.642,49.642,0,0,0-7.744-18.9A56.576,56.576,0,0,0,969.6,50.2a55.089,55.089,0,0,0-8.209-6.794,49.548,49.548,0,0,0-9.016-4.806,50.45,50.45,0,0,0-9.8-2.856,59.86,59.86,0,0,0-21.175,0,51.243,51.243,0,0,0-9.872,2.856,49.916,49.916,0,0,0-9.084,4.806,55.745,55.745,0,0,0-15.034,15.034,49.913,49.913,0,0,0-4.806,9.084,51.247,51.247,0,0,0-2.856,9.872,59.861,59.861,0,0,0,0,21.175,50.456,50.456,0,0,0,2.856,9.8,49.546,49.546,0,0,0,4.806,9.016A55.09,55.09,0,0,0,894.2,125.6a56.569,56.569,0,0,0,8.325,6.909,49.646,49.646,0,0,0,18.9,7.744A57.555,57.555,0,0,0,932,141.2Zm97.4-10.4,80.2-80.6,53.6,53.4V8h26.4V168l-80-80-80.2,80Zm189.6,0,80.2-80.6,53.6,53.4V8h26.4V168l-80-80L1219,168ZM1408.6,10.2V8h106.6V34.8h-80Zm0,157.8,26.6-26.8h80V168Zm0-66.8V74.6h106.6v26.6H1408.6Zm238-16.6a51.5,51.5,0,0,1,4.169,6.941,48.768,48.768,0,0,1,2.931,7.334,50.718,50.718,0,0,1,1.731,7.747A57.434,57.434,0,0,1,1656,114.8a55.739,55.739,0,0,1-.975,10.544,49.8,49.8,0,0,1-2.925,9.756,50.971,50.971,0,0,1-4.875,9.006,59.371,59.371,0,0,1-6.825,8.294,56.513,56.513,0,0,1-8.209,6.825,49.861,49.861,0,0,1-18.819,7.8A56.15,56.15,0,0,1,1602.8,168h-70.2l13.8-23.8,3-3h53.4a27.311,27.311,0,0,0,5.213-.488,24.582,24.582,0,0,0,4.837-1.462,25.028,25.028,0,0,0,4.462-2.437,28.73,28.73,0,0,0,4.088-3.413,28.288,28.288,0,0,0,3.528-4.087,24.388,24.388,0,0,0,2.5-4.463,24.013,24.013,0,0,0,1.484-4.838,27.06,27.06,0,0,0,.491-5.213,28.585,28.585,0,0,0-.491-5.359,25.011,25.011,0,0,0-1.484-4.966,24.6,24.6,0,0,0-2.5-4.553A27.4,27.4,0,0,0,1621.4,95.8a28.73,28.73,0,0,0-4.088-3.413,25.029,25.029,0,0,0-4.462-2.437,24.582,24.582,0,0,0-4.837-1.462A27.312,27.312,0,0,0,1602.8,88l-23.8.2L1625.4,8H1656l-32.8,57.4a49.413,49.413,0,0,1,12.9,7.65,52.547,52.547,0,0,1,5.55,5.287A59.322,59.322,0,0,1,1646.6,84.6ZM1754,14.4a75.721,75.721,0,0,1,14.975-4.775,77.2,77.2,0,0,1,7.891-1.216A80.325,80.325,0,0,1,1785,8q4.125,0,8.134.378a78.881,78.881,0,0,1,7.891,1.147,73.844,73.844,0,0,1,7.628,1.934A71.081,71.081,0,0,1,1816,14.2l-31,20.6q-2.775,0-5.444.259t-5.256.766q-2.587.506-5.106,1.253T1764.2,38.8q-2.4,1.05-4.65,2.291t-4.35,2.684a50.219,50.219,0,0,0-7.8,6.625,50.208,50.208,0,0,0-6.625,7.8q-1.444,2.1-2.684,4.35T1735.8,67.2q-1.05,2.475-1.838,4.994a51.385,51.385,0,0,0-1.312,5.106,51.926,51.926,0,0,0-.788,5.256q-.262,2.672-.262,5.444t.262,5.444a51.926,51.926,0,0,0,.788,5.256,51.385,51.385,0,0,0,1.312,5.106q.788,2.522,1.838,4.994,1.05,2.4,2.288,4.65t2.662,4.35q1.425,2.1,3.038,4.05t3.412,3.75a49.841,49.841,0,0,0,3.753,3.528,48.98,48.98,0,0,0,4.072,3.1,50.807,50.807,0,0,0,4.409,2.684q2.292,1.242,4.766,2.291,2.4.975,4.909,1.722t5.116,1.253q2.606.506,5.3.766t5.472.259a56.741,56.741,0,0,0,10.459-.944,50.268,50.268,0,0,0,18.819-7.663,57.177,57.177,0,0,0,8.322-6.794l19,18.6q-2.775,2.775-5.772,5.25t-6.2,4.65q-3.206,2.175-6.616,4.05T1816,161.8a71.081,71.081,0,0,1-7.347,2.741,73.84,73.84,0,0,1-7.628,1.934,78.881,78.881,0,0,1-7.891,1.147q-4.008.38-8.134.378a80.321,80.321,0,0,1-8.134-.409,77.2,77.2,0,0,1-7.891-1.216A75.724,75.724,0,0,1,1754,161.6q-3.675-1.575-7.094-3.419T1740.3,154.2q-3.187-2.138-6.156-4.581T1728.4,144.4q-2.7-2.7-5.134-5.625t-4.591-6.075q-2.156-3.15-4.028-6.525T1711.2,119.2q-1.575-3.675-2.772-7.462a77.858,77.858,0,0,1-3.219-15.6A80.4,80.4,0,0,1,1704.8,88a77.564,77.564,0,0,1,.409-7.991,75.963,75.963,0,0,1,1.216-7.784,77.41,77.41,0,0,1,2-7.6q1.2-3.755,2.772-7.428t3.447-7.094q1.87-3.422,4.028-6.606t4.591-6.156q2.433-2.972,5.134-5.744,2.775-2.7,5.744-5.134t6.156-4.591q3.188-2.156,6.606-4.028T1754,14.4Zm87.6-4.2V8h106.6V34.8h-80Zm0,157.8,26.6-26.8h80V168Zm0-66.8V74.6h106.6v26.6H1841.6Z" transform="translate(101.6 1103)" fill="#fff"/></g></g></g></svg>