<svg xmlns="http://www.w3.org/2000/svg" xmlns:xlink="http://www.w3.org/1999/xlink" width="71" height="74.03" viewBox="0 0 71 74.03">
  <defs>
    <linearGradient id="linear-gradient" x2="1" y2="1" gradientUnits="objectBoundingBox">
      <stop offset="0" stop-color="#fff"/>
      <stop offset="1" stop-color="#d7e1ec"/>
    </linearGradient>
    <filter id="github" x="0" y="0" width="71" height="74.03" filterUnits="userSpaceOnUse">
      <feOffset dy="4" input="SourceAlpha"/>
      <feGaussianBlur stdDeviation="3.5" result="blur"/>
      <feFlood/>
      <feComposite operator="in" in2="blur"/>
      <feComposite in="SourceGraphic"/>
    </filter>
  </defs>
  <g transform="matrix(1, 0, 0, 1, 0, 0)" filter="url(#github)">
    <path id="github-2" data-name="github" d="M19.949,46.437C7.128,50.22,7.128,40.132,2,38.871M37.9,54v-9.76a8.418,8.418,0,0,0-2.41-6.582C43.538,36.777,52,33.776,52,20.006a13.6,13.6,0,0,0-3.844-9.456,12.592,12.592,0,0,0-.233-9.51S44.9.158,37.9,4.773a34.861,34.861,0,0,0-17.949,0C12.949.158,9.923,1.041,9.923,1.041a12.592,12.592,0,0,0-.231,9.508,13.6,13.6,0,0,0-3.846,9.533c0,13.669,8.462,16.67,16.513,17.654a8.418,8.418,0,0,0-2.41,6.507V54" transform="translate(8.5 5.53)" fill="url(#linear-gradient)"/>
  </g>
</svg>
