<svg xmlns="http://www.w3.org/2000/svg" xmlns:xlink="http://www.w3.org/1999/xlink" width="71" height="68.5" viewBox="0 0 71 68.5">
  <defs>
    <linearGradient id="linear-gradient" x1="-0.558" y1="-0.498" x2="1" y2="1" gradientUnits="objectBoundingBox">
      <stop offset="0" stop-color="#fff"/>
      <stop offset="1" stop-color="#d7e1ec"/>
    </linearGradient>
    <filter id="Path_9" x="20" y="15" width="51" height="53.5" filterUnits="userSpaceOnUse">
      <feOffset dy="4" input="SourceAlpha"/>
      <feGaussianBlur stdDeviation="3.5" result="blur"/>
      <feFlood/>
      <feComposite operator="in" in2="blur"/>
      <feComposite in="SourceGraphic"/>
    </filter>
    <filter id="Rectangle_4" x="0" y="17.5" width="31" height="51" filterUnits="userSpaceOnUse">
      <feOffset dy="4" input="SourceAlpha"/>
      <feGaussianBlur stdDeviation="3.5" result="blur-2"/>
      <feFlood/>
      <feComposite operator="in" in2="blur-2"/>
      <feComposite in="SourceGraphic"/>
    </filter>
    <filter id="Ellipse_1" x="0" y="0" width="31" height="31" filterUnits="userSpaceOnUse">
      <feOffset dy="4" input="SourceAlpha"/>
      <feGaussianBlur stdDeviation="3.5" result="blur-3"/>
      <feFlood/>
      <feComposite operator="in" in2="blur-3"/>
      <feComposite in="SourceGraphic"/>
    </filter>
  </defs>
  <g id="linkedin" transform="translate(10.5 6.5)">
    <g transform="matrix(1, 0, 0, 1, -10.5, -6.5)" filter="url(#Path_9)">
      <path id="Path_9-2" data-name="Path 9" d="M25,8A15,15,0,0,1,40,23V40.5H30V23a5,5,0,0,0-10,0V40.5H10V23A15,15,0,0,1,25,8Z" transform="translate(20.5 13.5)" fill="url(#linear-gradient)"/>
    </g>
    <g transform="matrix(1, 0, 0, 1, -10.5, -6.5)" filter="url(#Rectangle_4)">
      <rect id="Rectangle_4-2" data-name="Rectangle 4" width="10" height="30" transform="translate(10.5 24)" fill="url(#linear-gradient)"/>
    </g>
    <g transform="matrix(1, 0, 0, 1, -10.5, -6.5)" filter="url(#Ellipse_1)">
      <circle id="Ellipse_1-2" data-name="Ellipse 1" cx="5" cy="5" r="5" transform="translate(10.5 6.5)" fill="url(#linear-gradient)"/>
    </g>
  </g>
</svg>
