<svg xmlns="http://www.w3.org/2000/svg" xmlns:xlink="http://www.w3.org/1999/xlink" width="382" height="1546.24" viewBox="0 0 382 1546.24">
  <defs>
    <filter id="WORK-BG" x="0" y="0" width="382" height="1546.24" filterUnits="userSpaceOnUse">
      <feOffset dy="7" input="SourceAlpha"/>
      <feGaussianBlur stdDeviation="5" result="blur"/>
      <feFlood/>
      <feComposite operator="in" in2="blur"/>
      <feComposite in="SourceGraphic"/>
    </filter>
  </defs>
  <g transform="matrix(1, 0, 0, 1, 0, 0)" filter="url(#WORK-BG)">
    <path id="WORK-BG-2" data-name="WORK-BG" d="M327.64,44H262.08L405.52,330.44l33-66Zm442.2,0L659.4,264.44,581.52,109.56l-33,66L659.4,396l176-352Zm254.32,0c-48.84,0-90.2,17.6-124.08,51.92C865.76,130.24,848.16,171.6,848.16,220c0,48.84,17.6,89.76,51.92,124.08S975.32,396,1024.16,396s89.76-17.6,124.08-51.92C1183,310.2,1200.6,268.84,1200.6,220c0-48.4-17.6-89.76-52.36-124.08C1113.92,61.6,1073,44,1024.16,44Zm0,58.96c32.12,0,59.84,11.44,82.72,34.32s34.32,50.6,34.32,82.72-11,59.84-34.32,83.16c-22.88,22.88-50.6,33.88-82.72,33.88s-60.28-11-83.16-33.88S907.12,252.12,907.12,220s11-59.84,33.88-82.72C964.32,113.96,992.04,102.96,1024.16,102.96Zm419.32,124.52c14.08-19.8,20.68-41.8,20.68-66.44,0-32.12-11.44-59.4-34.32-82.72C1406.96,55.44,1379.24,44,1347.12,44H1192.68l30.36,52.36,6.6,6.6h117.48q23.76,0,40.92,17.16c11.88,11.44,17.6,25.08,17.6,40.92,0,16.28-5.72,30.36-17.6,41.8Q1370.88,220,1347.12,220l-52.36-.44L1396.84,396h67.32L1392,269.72Q1423.02,257.18,1443.48,227.48ZM1778.32,44H1695.6L1543.36,195.8l-24.64,24.64,24.64,24.2L1695.6,396h82.72l-176-176Z" transform="translate(411 -254.08) rotate(90)" fill="#303030"/>
  </g>
</svg>
