<svg xmlns="http://www.w3.org/2000/svg" xmlns:xlink="http://www.w3.org/1999/xlink" width="375.215" height="103.047" viewBox="0 0 375.215 103.047">
  <defs>
    <linearGradient id="linear-gradient" x2="1" gradientUnits="objectBoundingBox">
      <stop offset="0" stop-color="#fff"/>
      <stop offset="1" stop-color="#d7e1ec"/>
    </linearGradient>
    <filter id="Contact" x="0" y="0" width="375.215" height="103.047" filterUnits="userSpaceOnUse">
      <feOffset dy="7" input="SourceAlpha"/>
      <feGaussianBlur stdDeviation="5" result="blur"/>
      <feFlood/>
      <feComposite operator="in" in2="blur"/>
      <feComposite in="SourceGraphic"/>
    </filter>
  </defs>
  <g transform="matrix(1, 0, 0, 1, 0, 0)" filter="url(#Contact)">
    <path id="Contact-2" data-name="Contact" d="M-113.5-23.682q-.83,11.475-8.472,18.066T-142.114.977q-13.672,0-21.509-9.2T-171.46-33.5v-4.346a42.617,42.617,0,0,1,3.613-18.066A27.078,27.078,0,0,1-157.52-67.9a28.929,28.929,0,0,1,15.6-4.175q12.3,0,19.824,6.592t8.691,18.506h-14.648q-.537-6.885-3.833-9.985t-10.034-3.1q-7.324,0-10.962,5.249t-3.735,16.284v5.371q0,11.523,3.491,16.846t11.011,5.322q6.787,0,10.132-3.1t3.833-9.595Zm6.494-3.223a31.333,31.333,0,0,1,3.027-14.014,22.162,22.162,0,0,1,8.716-9.521,25.428,25.428,0,0,1,13.208-3.369q10.693,0,17.456,6.543t7.544,17.773l.1,3.613q0,12.158-6.787,19.507T-81.958.977q-11.426,0-18.237-7.324t-6.812-19.922ZM-92.9-25.879q0,7.52,2.832,11.5A9.347,9.347,0,0,0-81.958-10.4a9.369,9.369,0,0,0,8.008-3.931q2.881-3.931,2.881-12.573,0-7.373-2.881-11.426a9.369,9.369,0,0,0-8.105-4.053,9.216,9.216,0,0,0-8.008,4.028Q-92.9-34.326-92.9-25.879Zm57.617-26.953.439,6.1a18.446,18.446,0,0,1,15.186-7.08q8.4,0,12.5,4.932t4.2,14.746V0H-17.065V-33.789q0-4.492-1.953-6.519t-6.494-2.026a9.708,9.708,0,0,0-8.936,5.078V0H-48.56V-52.832ZM24.634-65.82v12.988h9.033V-42.48H24.634v26.367a6.3,6.3,0,0,0,1.123,4.2q1.123,1.27,4.3,1.27a22.5,22.5,0,0,0,4.15-.342V-.293A29.05,29.05,0,0,1,25.659.977q-14.844,0-15.137-14.99V-42.48H2.808V-52.832h7.715V-65.82ZM72.144,0a15.671,15.671,0,0,1-1.416-4.736A17.074,17.074,0,0,1,57.4.977,18.758,18.758,0,0,1,44.531-3.516a14.448,14.448,0,0,1-5.1-11.328q0-8.4,6.226-12.891t17.993-4.541h6.494V-35.3a8.706,8.706,0,0,0-1.88-5.859q-1.88-2.2-5.933-2.2a8.408,8.408,0,0,0-5.591,1.709,5.806,5.806,0,0,0-2.026,4.688H40.6a14.175,14.175,0,0,1,2.832-8.5,18.72,18.72,0,0,1,8.008-6.128,29.184,29.184,0,0,1,11.621-2.222q9.766,0,15.5,4.907T84.3-35.107v22.9q.049,7.52,2.1,11.377V0ZM60.474-9.814a12.154,12.154,0,0,0,5.762-1.392,9.14,9.14,0,0,0,3.906-3.735v-9.082H64.868q-10.6,0-11.279,7.324l-.049.83A5.649,5.649,0,0,0,55.4-11.523,7.207,7.207,0,0,0,60.474-9.814Zm56.641-.586a9.255,9.255,0,0,0,6.348-2.148A7.528,7.528,0,0,0,126-18.262h13.232a18.1,18.1,0,0,1-2.93,9.839,19.331,19.331,0,0,1-7.886,6.934A24.68,24.68,0,0,1,117.358.977q-11.328,0-17.871-7.2t-6.543-19.9v-.928q0-12.207,6.494-19.482t17.822-7.275q9.912,0,15.894,5.64t6.079,15.015H126a9.617,9.617,0,0,0-2.539-6.665,8.489,8.489,0,0,0-6.445-2.563,8.5,8.5,0,0,0-7.446,3.589q-2.515,3.589-2.515,11.646v1.465q0,8.154,2.49,11.719T117.114-10.4Zm47.07-55.42v12.988h9.033V-42.48h-9.033v26.367a6.3,6.3,0,0,0,1.123,4.2q1.123,1.27,4.3,1.27a22.5,22.5,0,0,0,4.15-.342V-.293A29.05,29.05,0,0,1,165.21.977q-14.844,0-15.137-14.99V-42.48h-7.715V-52.832h7.715V-65.82Z" transform="translate(186.46 80.07)" fill="url(#linear-gradient)"/>
  </g>
</svg>
