<svg xmlns="http://www.w3.org/2000/svg" xmlns:xlink="http://www.w3.org/1999/xlink" width="261.641" height="105.977" viewBox="0 0 261.641 105.977">
  <defs>
    <linearGradient id="linear-gradient" x2="1" gradientUnits="objectBoundingBox">
      <stop offset="0" stop-color="#fff"/>
      <stop offset="1" stop-color="#d7e1ec"/>
    </linearGradient>
    <filter id="Work" x="0" y="0" width="261.641" height="105.977" filterUnits="userSpaceOnUse">
      <feOffset dy="7" input="SourceAlpha"/>
      <feGaussianBlur stdDeviation="5" result="blur"/>
      <feFlood/>
      <feComposite operator="in" in2="blur"/>
      <feComposite in="SourceGraphic"/>
    </filter>
  </defs>
  <g transform="matrix(1, 0, 0, 1, 0, 0)" filter="url(#Work)">
    <path id="Work-2" data-name="Work" d="M-54.468-20.508l9.57-50.586h14.6L-46.069,0H-60.815L-72.388-47.559-83.96,0H-98.706l-15.771-71.094h14.6l9.619,50.488L-78.54-71.094h12.4Zm27.441-6.4A31.333,31.333,0,0,1-24-40.918a22.162,22.162,0,0,1,8.716-9.521A25.428,25.428,0,0,1-2.075-53.809q10.693,0,17.456,6.543t7.544,17.773l.1,3.613q0,12.158-6.787,19.507T-1.978.977Q-13.4.977-20.215-6.348T-27.026-26.27Zm14.111,1.025q0,7.52,2.832,11.5A9.347,9.347,0,0,0-1.978-10.4,9.369,9.369,0,0,0,6.03-14.331Q8.911-18.262,8.911-26.9q0-7.373-2.881-11.426a9.369,9.369,0,0,0-8.105-4.053,9.216,9.216,0,0,0-8.008,4.028Q-12.915-34.326-12.915-25.879ZM61.4-39.6a38.336,38.336,0,0,0-5.078-.391q-8.008,0-10.5,5.42V0H31.714V-52.832h13.33l.391,6.3q4.248-7.275,11.768-7.275a14.786,14.786,0,0,1,4.395.635ZM87.378-21.191,82.3-16.113V0H68.188V-75H82.3v41.553l2.734-3.516L98.56-52.832H115.5L96.411-30.811,117.163,0H100.952Z" transform="translate(129.48 83)" fill="url(#linear-gradient)"/>
  </g>
</svg>
